<?xml version="1.0" encoding="UTF-8"?>
<svg xmlns="http://www.w3.org/2000/svg" xmlns:xlink="http://www.w3.org/1999/xlink" version="1.2" >
<font id="Bell Gothic BT">
<font-face  font-family="BellGothic BT" units-per-em="2048" ascent="1556" descent="492" font-style="normal" font-weight="400" font-stretch="semi-condensed" cap-height="1536" x-height="1024" underline-position="-178" underline-thickness="90" />
<missing-glyph  horiz-adv-x="1229" d="M102 -362 L102 1444 L1126 1444 L1126 -362 L102 -362 Z M217 -248 L1012 -248 L1012 1329 L217 1329 L217 -248 Z " />
<glyph glyph-name="space" unicode="&#x20;" horiz-adv-x="569" d="" />
<glyph glyph-name="exclam" unicode="&#x21;" horiz-adv-x="797" d="M274 113 Q274 162 311 197.5 Q348 233 397 233 Q448 233 483 198 Q518 163 518 113 Q518 63 482 27.5 Q446 -8 397 -8 Q348 -8 311 28 Q274 64 274 113 Z M350 444 L324 1360 L469 1360 L442 444 L350 444 Z " />
<glyph glyph-name="quotedbl" unicode="&#x22;" horiz-adv-x="551" d="M451 1434 L451 881 L365 881 L365 1434 L451 1434 Z M186 1434 L186 881 L100 881 L100 1434 L186 1434 Z " />
<glyph glyph-name="numbersign" unicode="&#x23;" horiz-adv-x="1575" d="M979 866 L709 866 L610 584 L879 584 L979 866 Z M915 1454 L741 956 L1012 956 L1188 1454 L1298 1454 L1124 956 L1446 956 L1415 866 L1092 866 L991 584 L1339 584 L1309 494 L958 494 L784 0 L672 0 L848 494 L578 494 L399 0 L289 0 L463 494 L129 494 L160 584 L496 584 L596 866 L236 866 L264 956 L629 956 L805 1454 L915 1454 Z " />
<glyph glyph-name="dollar" unicode="&#x24;" horiz-adv-x="1139" d="M627 123 Q737 146 793.5 203 Q850 260 850 348 Q850 429 790.5 492.5 Q731 556 627 586 L627 123 Z M516 758 L516 1151 Q412 1143 355.5 1097.5 Q299 1052 299 977 Q299 907 352 853.5 Q405 800 516 758 Z M516 -266 L516 0 Q401 11 306.5 52.5 Q212 94 135 168 L205 279 Q279 206 356 167.5 Q433 129 516 123 L516 621 Q338 686 255 769.5 Q172 853 172 967 Q172 1089 265 1169.5 Q358 1250 516 1262 L516 1432 L627 1432 L627 1262 Q719 1252 796.5 1218.5 Q874 1185 942 1124 L877 1030 Q818 1084 757 1113.5 Q696 1143 627 1151 L627 721 Q797 679 892 582 Q987 485 987 354 Q987 222 892.5 129 Q798 36 627 0 L627 -266 L516 -266 Z " />
<glyph glyph-name="percent" unicode="&#x25;" horiz-adv-x="1720" d="M1001 291 Q1001 411 1085.5 495.5 Q1170 580 1290 580 Q1411 580 1496 495.5 Q1581 411 1581 291 Q1581 170 1496.5 85 Q1412 0 1290 0 Q1171 0 1086 85.5 Q1001 171 1001 291 Z M1110 289 Q1110 214 1163 161.5 Q1216 109 1290 109 Q1366 109 1419.5 161.5 Q1473 214 1473 289 Q1473 364 1419.5 417.5 Q1366 471 1290 471 Q1215 471 1162.5 417.5 Q1110 364 1110 289 Z M393 -33 L1217 1294 L1327 1294 L504 -33 L393 -33 Z M250 973 Q250 898 303 844.5 Q356 791 430 791 Q505 791 557.5 844 Q610 897 610 973 Q610 1048 557.5 1100.5 Q505 1153 430 1153 Q355 1153 302.5 1100.5 Q250 1048 250 973 Z M141 973 Q141 1093 225.5 1177.5 Q310 1262 430 1262 Q551 1262 635 1177.5 Q719 1093 719 973 Q719 852 635.5 768 Q552 684 430 684 Q310 684 225.5 768.5 Q141 853 141 973 Z " />
<glyph glyph-name="ampersand" unicode="&#x26;" horiz-adv-x="1479" d="M905 231 Q821 328 737 440 Q653 552 555 698 Q434 633 376.5 555.5 Q319 478 319 379 Q319 257 401 171.5 Q483 86 596 86 Q670 86 751.5 124 Q833 162 905 231 Z M1405 -6 Q1375 -21 1348.5 -28 Q1322 -35 1294 -35 Q1214 -35 1140.5 8.5 Q1067 52 989 145 Q897 55 793 8 Q689 -39 582 -39 Q407 -39 291.5 76 Q176 191 176 367 Q176 506 253 611.5 Q330 717 494 803 Q437 898 410 973 Q383 1048 383 1110 Q383 1240 462 1319.5 Q541 1399 668 1399 Q795 1399 871.5 1326 Q948 1253 948 1133 Q948 1027 876.5 933.5 Q805 840 668 766 Q743 649 826 540 Q909 431 999 328 Q1073 419 1120.5 512 Q1168 605 1192 705 L1307 659 Q1267 530 1208 427 Q1149 324 1071 244 Q1136 163 1187.5 129.5 Q1239 96 1294 96 Q1316 96 1343.5 102.5 Q1371 109 1405 121 L1405 -6 Z M614 870 Q718 925 769.5 989.5 Q821 1054 821 1130 Q821 1203 779 1248.5 Q737 1294 672 1294 Q601 1294 557.5 1244.5 Q514 1195 514 1112 Q514 1066 539 1006.5 Q564 947 614 870 Z " />
<glyph glyph-name="quotesingle" unicode="&#x27;" horiz-adv-x="285" d="M186 1434 L186 881 L100 881 L100 1434 L186 1434 Z " />
<glyph glyph-name="parenleft" unicode="&#x28;" horiz-adv-x="682" d="M453 -76 Q311 100 242.5 277 Q174 454 174 643 Q174 832 242.5 1008 Q311 1184 453 1360 L590 1360 Q442 1163 370.5 987 Q299 811 299 643 Q299 475 370.5 298 Q442 121 590 -76 L453 -76 Z " />
<glyph glyph-name="parenright" unicode="&#x29;" horiz-adv-x="682" d="M219 -76 L82 -76 Q230 121 301.5 298 Q373 475 373 643 Q373 811 301.5 987 Q230 1163 82 1360 L219 1360 Q360 1185 428 1009.5 Q496 834 496 643 Q496 452 428 275.5 Q360 99 219 -76 Z " />
<glyph glyph-name="asterisk" unicode="&#x2a;" horiz-adv-x="1139" d="M569 946 L399 662 L291 750 L526 983 L197 1047 L244 1188 L543 1044 L498 1360 L647 1360 L602 1044 L899 1188 L946 1047 L616 983 L854 750 L745 662 L569 946 Z " />
<glyph glyph-name="plus" unicode="&#x2b;" horiz-adv-x="1706" d="M893 1221 L893 651 L1452 651 L1452 569 L893 569 L893 0 L813 0 L813 569 L254 569 L254 651 L813 651 L813 1221 L893 1221 Z " />
<glyph glyph-name="comma" unicode="&#x2c;" horiz-adv-x="569" d="M178 -385 L45 -385 L279 215 L410 215 L178 -385 Z " />
<glyph glyph-name="hyphen" unicode="&#x2d;" horiz-adv-x="682" d="M109 428 L109 547 L559 547 L559 428 L109 428 Z " />
<glyph glyph-name="period" unicode="&#x2e;" horiz-adv-x="569" d="M154 113 Q154 162 189.5 197.5 Q225 233 274 233 Q325 233 360 198 Q395 163 395 113 Q395 63 359.5 27.5 Q324 -8 274 -8 Q225 -8 189.5 27.5 Q154 63 154 113 Z " />
<glyph glyph-name="slash" unicode="&#x2f;" horiz-adv-x="569" d="M-41 -190 L498 1360 L610 1360 L72 -190 L-41 -190 Z " />
<glyph glyph-name="zero" unicode="0" horiz-adv-x="1139" d="M569 1171 Q439 1171 370 1032 Q301 893 301 629 Q301 365 370 226.5 Q439 88 569 88 Q700 88 769 226.5 Q838 365 838 629 Q838 892 768.5 1031.5 Q699 1171 569 1171 Z M158 631 Q158 944 267.5 1119 Q377 1294 569 1294 Q763 1294 871 1120 Q979 946 979 631 Q979 316 871 141.5 Q763 -33 569 -33 Q375 -33 266.5 142 Q158 317 158 631 Z " />
<glyph glyph-name="one" unicode="1" horiz-adv-x="1139" d="M252 0 L252 123 L535 123 L535 1139 L209 1139 L209 1262 L678 1262 L678 123 L948 123 L948 0 L252 0 Z " />
<glyph glyph-name="two" unicode="2" horiz-adv-x="1139" d="M172 0 Q189 141 238 249.5 Q287 358 371 438 Q424 490 531 575 Q638 660 676 692 Q742 748 779.5 816 Q817 884 817 948 Q817 1044 750 1107.5 Q683 1171 582 1171 Q477 1171 401.5 1113.5 Q326 1056 285 944 L174 1016 Q239 1156 339 1225 Q439 1294 578 1294 Q747 1294 854 1197.5 Q961 1101 961 948 Q961 877 935.5 810 Q910 743 860 684 Q801 613 669 509 Q632 480 614 465 Q474 352 423.5 281 Q373 210 354 123 L975 123 L975 0 L172 0 Z " />
<glyph glyph-name="three" unicode="3" horiz-adv-x="1139" d="M100 -33 L101 90 Q420 97 618.5 204 Q817 311 817 469 Q817 553 758.5 603 Q700 653 602 653 Q552 653 502 644.5 Q452 636 399 618 L365 723 Q561 798 652 873.5 Q743 949 743 1036 Q743 1104 702 1143 Q661 1182 588 1182 Q502 1182 415.5 1143 Q329 1104 242 1026 L166 1114 Q281 1207 382 1250.5 Q483 1294 582 1294 Q716 1294 800.5 1223 Q885 1152 885 1040 Q885 963 826.5 893 Q768 823 649 758 Q805 736 881.5 665.5 Q958 595 958 473 Q958 252 727 114 Q496 -24 100 -33 Z " />
<glyph glyph-name="four" unicode="4" horiz-adv-x="1139" d="M725 487 L725 1180 L244 518 L244 487 L725 487 Z M725 0 L725 365 L121 365 L121 549 L631 1262 L858 1262 L858 487 L1018 487 L1018 365 L858 365 L858 0 L725 0 Z " />
<glyph glyph-name="five" unicode="5" horiz-adv-x="1139" d="M125 37 L158 162 Q246 126 321.5 108 Q397 90 463 90 Q649 90 755.5 186 Q862 282 862 449 Q862 577 787.5 646 Q713 715 573 715 Q504 715 434.5 690 Q365 665 297 614 L195 614 L268 1262 L920 1262 L920 1139 L381 1139 L336 776 Q401 810 463.5 827 Q526 844 588 844 Q774 844 889 736 Q1004 628 1004 453 Q1004 227 859.5 97 Q715 -33 463 -33 Q366 -33 283 -16 Q200 1 125 37 Z " />
<glyph glyph-name="six" unicode="6" horiz-adv-x="1139" d="M326 377 Q326 246 404 167 Q482 88 612 88 Q742 88 823.5 168.5 Q905 249 905 377 Q905 505 827 583.5 Q749 662 621 662 Q494 662 410 580.5 Q326 499 326 377 Z M293 580 Q357 682 442.5 733 Q528 784 635 784 Q816 784 931.5 671 Q1047 558 1047 379 Q1047 200 925 83.5 Q803 -33 616 -33 Q410 -33 285 108.5 Q160 250 160 485 Q160 675 251 875 Q342 1075 528 1294 L707 1294 Q503 1067 401.5 891.5 Q300 716 293 580 Z " />
<glyph glyph-name="seven" unicode="7" horiz-adv-x="1139" d="M338 0 Q429 292 553 577 Q677 862 834 1139 L156 1139 L156 1262 L991 1262 L991 1214 Q820 907 699.5 604.5 Q579 302 506 0 L338 0 Z " />
<glyph glyph-name="eight" unicode="8" horiz-adv-x="1139" d="M274 354 Q274 238 356.5 164 Q439 90 569 90 Q702 90 783 163 Q864 236 864 354 Q864 474 783.5 547.5 Q703 621 569 621 Q438 621 356 547 Q274 473 274 354 Z M401 682 Q282 724 223 795.5 Q164 867 164 969 Q164 1105 280 1199.5 Q396 1294 569 1294 Q743 1294 859 1199.5 Q975 1105 975 969 Q975 867 915 795.5 Q855 724 735 682 Q869 637 937.5 552 Q1006 467 1006 344 Q1006 168 890 67.5 Q774 -33 569 -33 Q365 -33 249 67.5 Q133 168 133 344 Q133 467 200.5 552.5 Q268 638 401 682 Z M301 956 Q301 863 375.5 803 Q450 743 569 743 Q690 743 764 802 Q838 861 838 956 Q838 1052 764 1111.5 Q690 1171 569 1171 Q451 1171 376 1110.5 Q301 1050 301 956 Z " />
<glyph glyph-name="nine" unicode="9" horiz-adv-x="1139" d="M868 681 Q804 579 718 527 Q632 475 526 475 Q345 475 230 589 Q115 703 115 883 Q115 1062 236.5 1178 Q358 1294 545 1294 Q751 1294 876 1153 Q1001 1012 1001 776 Q1001 586 910 386.5 Q819 187 633 -33 L455 -33 Q658 195 759.5 370.5 Q861 546 868 681 Z M836 885 Q836 1016 757.5 1095 Q679 1174 549 1174 Q419 1174 337.5 1093.5 Q256 1013 256 885 Q256 756 334.5 677 Q413 598 541 598 Q667 598 751.5 680 Q836 762 836 885 Z " />
<glyph glyph-name="colon" unicode="&#x3a;" horiz-adv-x="569" d="M164 113 Q164 162 200 197.5 Q236 233 285 233 Q335 233 370.5 198 Q406 163 406 113 Q406 63 370 27.5 Q334 -8 285 -8 Q236 -8 200 27.5 Q164 63 164 113 Z M156 879 Q156 928 191.5 963.5 Q227 999 276 999 Q327 999 362 964 Q397 929 397 879 Q397 829 361.5 793.5 Q326 758 276 758 Q227 758 191.5 793.5 Q156 829 156 879 Z " />
<glyph glyph-name="semicolon" unicode="&#x3b;" horiz-adv-x="569" d="M111 -385 L-23 -385 L211 215 L344 215 L111 -385 Z M158 879 Q158 928 194 964.5 Q230 1001 279 1001 Q329 1001 364 965.5 Q399 930 399 879 Q399 829 363 791.5 Q327 754 279 754 Q230 754 194 791.5 Q158 829 158 879 Z " />
<glyph glyph-name="less" unicode="&#x3c;" horiz-adv-x="1706" d="M1442 1034 L397 610 L1442 186 L1442 98 L264 580 L264 641 L1442 1124 L1442 1034 Z " />
<glyph glyph-name="equal" unicode="&#x3d;" horiz-adv-x="1706" d="M1452 469 L1452 387 L254 387 L254 469 L1452 469 Z M1452 831 L1452 752 L254 752 L254 831 L1452 831 Z " />
<glyph glyph-name="greater" unicode="&#x3e;" horiz-adv-x="1706" d="M1442 641 L1442 580 L264 98 L264 186 L1309 610 L264 1034 L264 1124 L1442 641 Z " />
<glyph glyph-name="question" unicode="&#x3f;" horiz-adv-x="1024" d="M324 113 Q324 162 359.5 197.5 Q395 233 444 233 Q495 233 530 198 Q565 163 565 113 Q565 63 529.5 27.5 Q494 -8 444 -8 Q395 -8 359.5 27.5 Q324 63 324 113 Z M373 475 L373 573 Q373 624 402 679.5 Q431 735 491 800 Q503 813 526 839 Q676 1000 676 1100 Q676 1185 620.5 1232.5 Q565 1280 467 1280 Q384 1280 324.5 1236.5 Q265 1193 225 1104 L100 1159 Q166 1279 260 1339 Q354 1399 475 1399 Q626 1399 722.5 1314.5 Q819 1230 819 1100 Q819 1031 792 972 Q765 913 674 815 Q663 803 644 783 Q506 635 502 547 L502 475 L373 475 Z " />
<glyph glyph-name="at" unicode="&#x40;" horiz-adv-x="2048" d="M1303 827 L1364 956 L1444 956 L1307 403 Q1297 367 1291.5 338.5 Q1286 310 1286 295 Q1286 251 1316.5 227 Q1347 203 1403 203 Q1451 203 1503 222.5 Q1555 242 1606 279 Q1707 353 1768 486 Q1829 619 1829 768 Q1829 1041 1629.5 1207.5 Q1430 1374 1104 1374 Q936 1374 793.5 1326 Q651 1278 535 1182 Q381 1054 303 885 Q225 716 225 510 Q225 183 446.5 -12 Q668 -207 1038 -207 Q1199 -207 1362 -156.5 Q1525 -106 1661 -14 L1690 -59 Q1544 -169 1381.5 -224 Q1219 -279 1042 -279 Q855 -279 699 -232.5 Q543 -186 422 -94 Q270 21 195.5 173.5 Q121 326 121 522 Q121 684 171.5 829 Q222 974 319 1094 Q463 1269 664.5 1359.5 Q866 1450 1114 1450 Q1274 1450 1418.5 1406 Q1563 1362 1667 1282 Q1795 1184 1861 1055.5 Q1927 927 1927 778 Q1927 609 1864 470 Q1801 331 1683 238 Q1616 184 1537.5 155.5 Q1459 127 1378 127 Q1283 127 1234.5 163.5 Q1186 200 1186 272 Q1186 284 1189 306 Q1190 309 1190 311 Q1141 223 1065 175 Q989 127 899 127 Q745 127 665.5 210 Q586 293 586 453 Q586 681 720.5 839 Q855 997 1047 997 Q1142 997 1207 954 Q1272 911 1303 827 Z M1219 467 L1282 721 Q1260 820 1200.5 872 Q1141 924 1049 924 Q897 924 793.5 786 Q690 648 690 446 Q690 331 747.5 266 Q805 201 907 201 Q1018 201 1103 273.5 Q1188 346 1219 467 Z " />
<glyph glyph-name="A" unicode="A" horiz-adv-x="1366" d="M379 449 L983 449 L694 1180 L668 1180 L379 449 Z M55 0 L600 1360 L762 1360 L1305 0 L1161 0 L1032 326 L330 326 L201 0 L55 0 Z " />
<glyph glyph-name="B" unicode="B" horiz-adv-x="1366" d="M377 123 L682 123 Q851 123 938.5 193 Q1026 263 1026 397 Q1026 535 933.5 603.5 Q841 672 655 672 L377 672 L377 123 Z M377 1237 L377 795 L641 795 Q819 795 897 846.5 Q975 898 975 1014 Q975 1133 898.5 1185 Q822 1237 641 1237 L377 1237 Z M240 0 L240 1360 L659 1360 Q884 1360 999 1275 Q1114 1190 1114 1024 Q1114 929 1057 863.5 Q1000 798 872 748 L872 729 Q1020 694 1093.5 610.5 Q1167 527 1167 395 Q1167 212 1046.5 106 Q926 0 717 0 L240 0 Z " />
<glyph glyph-name="C" unicode="C" horiz-adv-x="1251" d="M1102 371 Q1090 185 971.5 73 Q853 -39 672 -39 Q436 -39 313 144.5 Q190 328 190 680 Q190 1027 312.5 1213 Q435 1399 662 1399 Q838 1399 950.5 1299 Q1063 1199 1079 1026 L948 967 Q936 1124 867.5 1201 Q799 1278 672 1278 Q500 1278 415 1129 Q330 980 330 680 Q330 383 415 232.5 Q500 82 668 82 Q806 82 887.5 168 Q969 254 971 403 L1102 371 Z " />
<glyph glyph-name="D" unicode="D" horiz-adv-x="1323" d="M201 0 L201 1360 L549 1360 Q842 1360 992.5 1187.5 Q1143 1015 1143 680 Q1143 345 992.5 172.5 Q842 0 549 0 L201 0 Z M338 123 L539 123 Q775 123 887 258.5 Q999 394 999 680 Q999 966 887 1101.5 Q775 1237 539 1237 L338 1237 L338 123 Z " />
<glyph glyph-name="E" unicode="E" horiz-adv-x="1366" d="M313 0 L313 1360 L1161 1360 L1161 1237 L451 1237 L451 774 L1063 774 L1063 651 L451 651 L451 123 L1184 123 L1184 0 L313 0 Z " />
<glyph glyph-name="F" unicode="F" horiz-adv-x="1186" d="M248 0 L248 1360 L1098 1360 L1098 1237 L385 1237 L385 803 L985 803 L985 680 L385 680 L385 0 L248 0 Z " />
<glyph glyph-name="G" unicode="G" horiz-adv-x="1366" d="M1073 -39 L1042 166 L1024 166 Q961 60 878.5 10.5 Q796 -39 682 -39 Q434 -39 309 141.5 Q184 322 184 680 Q184 1033 307.5 1216 Q431 1399 670 1399 Q832 1399 938.5 1309.5 Q1045 1220 1075 1059 L956 1008 Q929 1144 858.5 1211 Q788 1278 672 1278 Q496 1278 411 1130.5 Q326 983 326 680 Q326 369 414 225.5 Q502 82 692 82 Q841 82 921 188 Q1001 294 1014 506 L659 506 L659 629 L1126 629 L1126 -39 L1073 -39 Z " />
<glyph glyph-name="H" unicode="H" horiz-adv-x="1479" d="M301 0 L301 1360 L438 1360 L438 772 L1036 772 L1036 1360 L1174 1360 L1174 0 L1036 0 L1036 649 L438 649 L438 0 L301 0 Z " />
<glyph glyph-name="I" unicode="I" horiz-adv-x="797" d="M188 0 L188 80 L332 80 L332 1280 L188 1280 L188 1360 L616 1360 L616 1280 L473 1280 L473 80 L616 80 L616 0 L188 0 Z " />
<glyph glyph-name="J" unicode="J" horiz-adv-x="1024" d="M20 328 L150 385 Q150 244 208 165 Q266 86 371 86 Q486 86 551 165 Q616 244 616 385 L616 1360 L754 1360 L754 360 Q754 176 649.5 68.5 Q545 -39 369 -39 Q212 -39 119.5 58.5 Q27 156 20 328 Z " />
<glyph glyph-name="K" unicode="K" horiz-adv-x="1366" d="M266 0 L266 1360 L403 1360 L403 0 L266 0 Z M467 733 L1100 1360 L1268 1360 L643 739 L1311 0 L1122 0 L467 733 Z " />
<glyph glyph-name="L" unicode="L" horiz-adv-x="1208" d="M291 0 L291 1360 L428 1360 L428 123 L1128 123 L1128 0 L291 0 Z " />
<glyph glyph-name="M" unicode="M" horiz-adv-x="1821" d="M276 0 L276 1360 L555 1360 L887 123 L930 123 L1262 1360 L1538 1360 L1538 0 L1401 0 L1401 1278 L1358 1278 L1022 0 L795 0 L457 1278 L416 1278 L416 0 L276 0 Z " />
<glyph glyph-name="N" unicode="N" horiz-adv-x="1479" d="M268 0 L268 1360 L524 1360 L1032 137 L1069 137 L1069 1360 L1206 1360 L1206 0 L952 0 L442 1223 L406 1223 L406 0 L268 0 Z " />
<glyph glyph-name="O" unicode="O" horiz-adv-x="1251" d="M266 680 Q266 382 348.5 233 Q431 84 596 84 Q761 84 844.5 233.5 Q928 383 928 680 Q928 977 844.5 1127.5 Q761 1278 596 1278 Q432 1278 349 1128 Q266 978 266 680 Z M125 700 Q125 1033 249 1216 Q373 1399 596 1399 Q823 1399 945 1213 Q1067 1027 1067 680 Q1067 333 945 147 Q823 -39 596 -39 Q366 -39 245.5 150 Q125 339 125 700 Z " />
<glyph glyph-name="P" unicode="P" horiz-adv-x="1276" d="M264 0 L264 1360 L651 1360 Q880 1360 1006.5 1253.5 Q1133 1147 1133 956 Q1133 766 1006.5 659.5 Q880 553 651 553 L401 553 L401 0 L264 0 Z M401 1237 L401 680 L604 680 Q804 680 897.5 747.5 Q991 815 991 958 Q991 1102 897.5 1169.5 Q804 1237 604 1237 L401 1237 Z " />
<glyph glyph-name="Q" unicode="Q" horiz-adv-x="1251" d="M760 0 Q725 -20 684.5 -29.5 Q644 -39 596 -39 Q369 -39 247 147 Q125 333 125 680 Q125 1027 247 1213 Q369 1399 596 1399 Q823 1399 945 1213 Q1067 1027 1067 680 Q1067 445 1015.5 290 Q964 135 860 55 L907 -23 Q931 -61 968 -80.5 Q1005 -100 1053 -100 Q1070 -100 1086.5 -98 Q1103 -96 1118 -92 L1118 -217 Q1096 -222 1077 -224.5 Q1058 -227 1040 -227 Q971 -227 914.5 -192 Q858 -157 813 -86 L760 0 Z M698 107 Q666 164 626.5 218 Q587 272 541 324 L627 389 Q674 333 715.5 277.5 Q757 222 795 166 Q865 238 896.5 346.5 Q928 455 928 633 Q928 966 847.5 1122 Q767 1278 596 1278 Q432 1278 349 1128 Q266 978 266 680 Q266 382 348.5 233 Q431 84 596 84 Q626 84 651.5 89.5 Q677 95 698 107 Z " />
<glyph glyph-name="R" unicode="R" horiz-adv-x="1366" d="M414 1237 L414 719 L614 719 Q807 719 904 784 Q1001 849 1001 979 Q1001 1108 904.5 1172.5 Q808 1237 614 1237 L414 1237 Z M276 0 L276 1360 L662 1360 Q884 1360 1014.5 1256.5 Q1145 1153 1145 979 Q1145 828 1047 728 Q949 628 776 602 L1186 0 L1028 0 L627 592 L414 592 L414 0 L276 0 Z " />
<glyph glyph-name="S" unicode="S" horiz-adv-x="1251" d="M154 281 L283 338 Q325 212 411 148 Q497 84 625 84 Q747 84 819 155.5 Q891 227 891 348 Q891 434 845.5 494 Q800 554 705 594 L479 688 Q337 748 271 835 Q205 922 205 1051 Q205 1211 306.5 1304 Q408 1397 584 1397 Q721 1397 821 1329.5 Q921 1262 993 1120 L872 1061 Q825 1170 746.5 1226 Q668 1282 563 1282 Q461 1282 396.5 1219 Q332 1156 332 1057 Q332 985 376 926 Q420 867 500 831 L731 729 Q895 658 960.5 573.5 Q1026 489 1026 354 Q1026 176 914.5 70.5 Q803 -35 612 -35 Q442 -35 326 45 Q210 125 154 281 Z " />
<glyph glyph-name="T" unicode="T" horiz-adv-x="1114" d="M487 0 L487 1237 L51 1237 L51 1360 L1063 1360 L1063 1237 L627 1237 L627 0 L487 0 Z " />
<glyph glyph-name="U" unicode="U" horiz-adv-x="1479" d="M301 1360 L440 1360 L440 410 Q440 235 509.5 160.5 Q579 86 741 86 Q850 86 915 122 Q980 158 1018 238 Q1037 278 1046 333 Q1055 388 1055 487 L1055 573 L1055 1360 L1174 1360 L1174 483 Q1174 220 1066.5 90.5 Q959 -39 741 -39 Q521 -39 411 69.5 Q301 178 301 395 L301 1360 Z " />
<glyph glyph-name="V" unicode="V" horiz-adv-x="1366" d="M602 0 L111 1360 L256 1360 L670 170 L692 170 L1104 1360 L1251 1360 L758 0 L602 0 Z " />
<glyph glyph-name="W" unicode="W" horiz-adv-x="1933" d="M481 0 L115 1360 L254 1360 L459 612 Q486 515 511 399 Q536 283 563 133 L594 133 L877 1360 L1057 1360 L1337 133 L1368 133 Q1392 268 1418.5 387 Q1445 506 1475 612 L1677 1360 L1819 1360 L1450 0 L1255 0 L981 1169 L950 1169 L678 0 L481 0 Z " />
<glyph glyph-name="X" unicode="X" horiz-adv-x="1366" d="M678 590 L268 0 L115 0 L606 694 L154 1360 L313 1360 L688 803 L1057 1360 L1204 1360 L758 707 L1251 0 L1087 0 L678 590 Z " />
<glyph glyph-name="Y" unicode="Y" horiz-adv-x="1366" d="M612 0 L612 487 L111 1360 L260 1360 L668 653 L692 653 L1100 1360 L1251 1360 L750 487 L750 0 L612 0 Z " />
<glyph glyph-name="Z" unicode="Z" horiz-adv-x="1251" d="M154 0 L154 94 L909 1237 L186 1237 L186 1360 L1087 1360 L1087 1266 L334 123 L1094 123 L1094 0 L154 0 Z " />
<glyph glyph-name="bracketleft" unicode="&#x5b;" horiz-adv-x="797" d="M178 -76 L178 1360 L745 1360 L745 1280 L307 1280 L307 4 L745 4 L745 -76 L178 -76 Z " />
<glyph glyph-name="backslash" unicode="&#x5c;" horiz-adv-x="569" d="M-41 1360 L70 1360 L608 -190 L496 -190 L-41 1360 Z " />
<glyph glyph-name="bracketright" unicode="&#x5d;" horiz-adv-x="797" d="M612 -76 L45 -76 L45 4 L485 4 L485 1280 L45 1280 L45 1360 L612 1360 L612 -76 Z " />
<glyph glyph-name="asciicircum" unicode="&#x5e;" horiz-adv-x="2048" d="M1081 1458 L1622 901 L1497 901 L1024 1370 L549 901 L424 901 L963 1458 L1081 1458 Z " />
<glyph glyph-name="underscore" unicode="&#x5f;" horiz-adv-x="1024" d="M1024 -403 L1024 -483 L0 -483 L0 -403 L1024 -403 Z " />
<glyph glyph-name="grave" unicode="&#x60;" horiz-adv-x="1024" d="M649 1112 L543 1112 L262 1460 L440 1460 L649 1112 Z " />
<glyph glyph-name="a" unicode="a" horiz-adv-x="1024" d="M702 276 L702 514 L676 514 Q458 514 339.5 447.5 Q221 381 221 260 Q221 186 262.5 142 Q304 98 373 98 Q439 98 526.5 145 Q614 192 702 276 Z M686 174 Q603 76 518 25.5 Q433 -25 348 -25 Q231 -25 157.5 54 Q84 133 84 260 Q84 422 234.5 512 Q385 602 659 602 L702 602 L702 731 Q702 813 658.5 849 Q615 885 514 885 Q441 885 368.5 860.5 Q296 836 223 786 L162 909 Q257 955 348 977 Q439 999 528 999 Q624 999 696 970 Q768 941 803 889 Q819 866 826.5 823.5 Q834 781 834 702 L834 219 Q834 158 860 130 Q886 102 948 98 L948 -22 Q839 -18 777 33 Q715 84 709 174 L686 174 Z " />
<glyph glyph-name="b" unicode="b" horiz-adv-x="1024" d="M786 487 Q786 675 725.5 777 Q665 879 553 879 Q508 879 460.5 851 Q413 823 377 774 Q330 711 305.5 636.5 Q281 562 281 487 Q281 413 305.5 338.5 Q330 264 377 201 Q413 153 460 125.5 Q507 98 553 98 Q665 98 725.5 199 Q786 300 786 487 Z M147 47 L147 1378 L281 1436 L281 791 L297 791 Q363 895 438.5 948 Q514 1001 596 1001 Q753 1001 838.5 868 Q924 735 924 487 Q924 244 838 112 Q752 -20 596 -20 Q514 -20 438.5 33 Q363 86 297 190 L281 190 L281 -25 L147 47 Z " />
<glyph glyph-name="c" unicode="c" horiz-adv-x="909" d="M846 178 Q791 74 708.5 24.5 Q626 -25 508 -25 Q330 -25 230.5 110 Q131 245 131 487 Q131 722 232.5 861.5 Q334 1001 502 1001 Q603 1001 682.5 956 Q762 911 834 813 L705 750 Q666 815 615 849 Q564 883 502 883 Q394 883 331 777.5 Q268 672 268 487 Q268 295 334 194.5 Q400 94 526 94 Q588 94 635 128 Q682 162 723 236 L846 178 Z " />
<glyph glyph-name="d" unicode="d" horiz-adv-x="1024" d="M250 487 Q250 300 310.5 199 Q371 98 483 98 Q529 98 576.5 125.5 Q624 153 659 201 Q706 264 731 338.5 Q756 413 756 487 Q756 562 731 636.5 Q706 711 659 774 Q623 823 576 851 Q529 879 483 879 Q372 879 311 777 Q250 675 250 487 Z M887 47 L756 0 L756 190 L737 190 Q671 86 595.5 33 Q520 -20 438 -20 Q282 -20 196.5 112 Q111 244 111 487 Q111 735 196 868 Q281 1001 438 1001 Q521 1001 596.5 948 Q672 895 737 791 L756 791 L756 1378 L887 1436 L887 47 Z " />
<glyph glyph-name="e" unicode="e" horiz-adv-x="909" d="M788 129 Q726 54 641.5 14.5 Q557 -25 459 -25 Q282 -25 187 109.5 Q92 244 92 494 Q92 728 191 863.5 Q290 999 459 999 Q627 999 723 872 Q819 745 819 520 L819 500 L229 500 L229 453 Q229 270 290 182 Q351 94 477 94 Q531 94 585.5 122.5 Q640 151 692 207 L788 129 Z M229 608 L682 609 Q677 743 620.5 813 Q564 883 459 883 Q355 883 297.5 813.5 Q240 744 229 608 Z " />
<glyph glyph-name="f" unicode="f" horiz-adv-x="653" d="M250 0 L250 838 L61 838 L61 944 L250 944 L250 1102 Q250 1262 319.5 1348 Q389 1434 518 1434 Q549 1434 582.5 1428.5 Q616 1423 651 1413 L651 1278 Q620 1294 589.5 1302.5 Q559 1311 530 1311 Q448 1311 415.5 1262 Q383 1213 383 1067 L383 944 L618 944 L618 838 L383 838 L383 0 L250 0 Z " />
<glyph glyph-name="g" unicode="g" horiz-adv-x="1024" d="M252 545 Q252 385 310 295 Q368 205 469 205 Q587 205 667.5 301.5 Q748 398 748 545 Q748 692 667.5 789.5 Q587 887 469 887 Q368 887 310 796 Q252 705 252 545 Z M244 -252 L244 -127 L293 -127 Q319 -160 366 -176.5 Q413 -193 481 -193 Q610 -193 679 -126.5 Q748 -60 748 63 L748 279 L731 279 Q682 189 609.5 139.5 Q537 90 457 90 Q305 90 210 215.5 Q115 341 115 545 Q115 748 210 873.5 Q305 999 457 999 Q537 999 609.5 950 Q682 901 731 811 L748 811 L748 979 L881 979 L881 86 Q881 -97 775.5 -204 Q670 -311 492 -311 Q426 -311 365 -296.5 Q304 -282 244 -252 Z " />
<glyph glyph-name="h" unicode="h" horiz-adv-x="1024" d="M160 0 L160 1378 L291 1436 L291 782 L309 782 Q395 893 478.5 947 Q562 1001 647 1001 Q764 1001 824.5 922 Q885 843 885 688 L885 0 L752 0 L752 666 Q752 787 719.5 837 Q687 887 610 887 Q535 887 453.5 827.5 Q372 768 291 653 L291 0 L160 0 Z " />
<glyph glyph-name="i" unicode="i" horiz-adv-x="569" d="M221 0 L221 979 L348 979 L348 0 L221 0 Z M195 1176 L195 1378 L375 1378 L375 1176 L195 1176 Z " />
<glyph glyph-name="j" unicode="j" horiz-adv-x="569" d="M1 -283 L6 -147 Q45 -169 74.5 -179.5 Q104 -190 127 -190 Q182 -190 205.5 -153.5 Q229 -117 229 -27 L229 979 L358 979 L358 -63 Q358 -182 299.5 -245.5 Q241 -309 131 -309 Q100 -309 67.5 -302.5 Q35 -296 1 -283 Z M205 1176 L205 1378 L385 1378 L385 1176 L205 1176 Z " />
<glyph glyph-name="k" unicode="k" horiz-adv-x="1024" d="M815 0 L379 500 L823 979 L975 979 L539 500 L973 0 L815 0 Z M205 0 L205 1378 L338 1436 L338 0 L205 0 Z " />
<glyph glyph-name="l" unicode="l" horiz-adv-x="569" d="M217 0 L217 1378 L350 1436 L350 0 L217 0 Z " />
<glyph glyph-name="m" unicode="m" horiz-adv-x="1593" d="M137 0 L137 942 L268 1001 L268 782 L287 782 Q373 893 455 947 Q537 1001 621 1001 Q724 1001 787.5 943 Q851 885 860 783 L881 782 Q967 894 1049.5 947.5 Q1132 1001 1217 1001 Q1334 1001 1395 921.5 Q1456 842 1456 688 L1456 0 L1323 0 L1323 666 Q1323 787 1290.5 837 Q1258 887 1182 887 Q1106 887 1025 827.5 Q944 768 862 653 L862 0 L729 0 L729 666 Q729 787 697 837 Q665 887 588 887 Q513 887 431.5 827.5 Q350 768 268 653 L268 0 L137 0 Z " />
<glyph glyph-name="n" unicode="n" horiz-adv-x="1024" d="M150 0 L150 942 L283 1001 L283 782 L299 782 Q385 893 468.5 947 Q552 1001 637 1001 Q755 1001 816 921.5 Q877 842 877 688 L877 0 L743 0 L743 666 Q743 787 711 837 Q679 887 602 887 Q527 887 445.5 827.5 Q364 768 283 653 L283 0 L150 0 Z " />
<glyph glyph-name="o" unicode="o" horiz-adv-x="995" d="M258 487 Q258 301 321.5 197.5 Q385 94 498 94 Q611 94 674 197.5 Q737 301 737 487 Q737 674 674 778.5 Q611 883 498 883 Q385 883 321.5 778.5 Q258 674 258 487 Z M121 487 Q121 724 223 861.5 Q325 999 498 999 Q670 999 772 861.5 Q874 724 874 487 Q874 251 772 113 Q670 -25 498 -25 Q325 -25 223 113 Q121 251 121 487 Z " />
<glyph glyph-name="p" unicode="p" horiz-adv-x="1024" d="M770 487 Q770 675 709 777 Q648 879 537 879 Q491 879 444 851 Q397 823 360 774 Q315 712 290.5 638 Q266 564 266 487 Q266 411 290.5 337 Q315 263 360 201 Q396 153 443.5 125.5 Q491 98 537 98 Q648 98 709 199 Q770 300 770 487 Z M133 -356 L133 942 L266 1001 L266 791 L283 791 Q348 895 424 948 Q500 1001 582 1001 Q739 1001 824 868 Q909 735 909 487 Q909 244 823.5 112 Q738 -20 582 -20 Q500 -20 424 33 Q348 86 283 190 L266 190 L266 -356 L133 -356 Z " />
<glyph glyph-name="q" unicode="q" horiz-adv-x="1024" d="M246 487 Q246 300 306.5 199 Q367 98 479 98 Q525 98 572.5 125.5 Q620 153 655 201 Q702 264 727 338.5 Q752 413 752 487 Q752 562 727 636.5 Q702 711 655 774 Q619 823 571.5 851 Q524 879 479 879 Q367 879 306.5 777 Q246 675 246 487 Z M883 -356 L752 -356 L752 190 L733 190 Q667 86 591.5 33 Q516 -20 434 -20 Q278 -20 193.5 112 Q109 244 109 487 Q109 735 193.5 868 Q278 1001 434 1001 Q516 1001 591.5 948 Q667 895 733 791 L752 791 L752 1001 L883 942 L883 -356 Z " />
<glyph glyph-name="r" unicode="r" horiz-adv-x="797" d="M213 0 L213 942 L346 999 L346 629 L365 629 Q480 800 578 892 Q676 984 760 999 L760 758 L748 758 Q630 758 532 697 Q434 636 346 508 L346 0 L213 0 Z " />
<glyph glyph-name="s" unicode="s" horiz-adv-x="797" d="M86 94 L141 205 Q216 147 280 119.5 Q344 92 401 92 Q490 92 548 142.5 Q606 193 606 268 Q606 319 578 352.5 Q550 386 483 414 L295 492 Q203 530 156 594.5 Q109 659 109 745 Q109 857 197.5 929 Q286 1001 426 1001 Q490 1001 554 982.5 Q618 964 690 924 L641 809 Q573 850 516 869.5 Q459 889 410 889 Q330 889 280.5 852 Q231 815 231 756 Q231 705 262.5 668 Q294 631 360 604 L506 547 Q625 500 678 436 Q731 372 731 276 Q731 145 640 60 Q549 -25 408 -25 Q316 -25 235 5 Q154 35 86 94 Z " />
<glyph glyph-name="t" unicode="t" horiz-adv-x="682" d="M672 41 Q606 8 551.5 -8.5 Q497 -25 453 -25 Q407 -25 365 -7.5 Q323 10 291 43 Q262 71 250 111 Q238 151 238 250 L238 836 L59 836 L59 942 L238 942 L238 1176 L369 1335 L369 942 L594 942 L594 836 L369 836 L369 205 Q369 151 396.5 124.5 Q424 98 479 98 Q511 98 557 115 Q603 132 672 170 L672 41 Z " />
<glyph glyph-name="u" unicode="u" horiz-adv-x="1024" d="M877 979 L877 57 L743 0 L743 217 L725 217 Q639 106 556 52 Q473 -2 389 -2 Q271 -2 210.5 77.5 Q150 157 150 311 L150 979 L283 979 L283 334 Q283 212 315 162.5 Q347 113 424 113 Q499 113 580 173 Q661 233 743 348 L743 979 L877 979 Z " />
<glyph glyph-name="v" unicode="v" horiz-adv-x="909" d="M367 0 L53 979 L186 979 L444 141 L465 141 L723 979 L858 979 L545 0 L367 0 Z " />
<glyph glyph-name="w" unicode="w" horiz-adv-x="1366" d="M672 819 L473 0 L297 0 L0 979 L135 979 L381 141 L401 141 L606 979 L758 979 L965 141 L985 141 L1231 979 L1364 979 L1069 0 L893 0 L692 819 L672 819 Z " />
<glyph glyph-name="x" unicode="x" horiz-adv-x="1024" d="M86 0 L438 498 L100 979 L256 979 L512 586 L768 979 L924 979 L586 498 L938 0 L774 0 L512 403 L250 0 L86 0 Z " />
<glyph glyph-name="y" unicode="y" horiz-adv-x="909" d="M39 -305 L39 -143 L88 -143 Q114 -174 143.5 -189.5 Q173 -205 205 -205 Q259 -205 294 -167.5 Q329 -130 365 -33 L397 63 L55 979 L193 979 L453 256 L469 256 L733 979 L872 979 L471 -106 Q427 -221 360.5 -272.5 Q294 -324 188 -324 Q156 -324 117.5 -319 Q79 -314 39 -305 Z " />
<glyph glyph-name="z" unicode="z" horiz-adv-x="909" d="M113 0 L113 131 L649 854 L131 854 L131 973 L805 973 L805 848 L266 125 L805 125 L805 0 L113 0 Z " />
<glyph glyph-name="braceleft" unicode="&#x7b;" horiz-adv-x="1024" d="M848 1389 L811 1389 Q676 1389 629 1337.5 Q582 1286 582 1124 L582 883 Q582 708 539 635 Q496 562 387 530 Q496 498 539 426 Q582 354 582 178 L582 -63 Q582 -225 628.5 -275.5 Q675 -326 809 -326 L848 -326 L848 -414 L805 -414 Q616 -414 547.5 -339.5 Q479 -265 479 -39 L479 201 Q479 359 421 423 Q363 487 221 487 Q214 487 199.5 486 Q185 485 176 485 L176 575 Q186 574 196.5 573.5 Q207 573 225 573 Q364 573 421.5 637.5 Q479 702 479 860 L479 1100 Q479 1327 547.5 1402 Q616 1477 805 1477 L848 1477 L848 1389 Z " />
<glyph glyph-name="bar" unicode="&#x7c;" horiz-adv-x="1024" d="M557 1565 L557 -483 L467 -483 L467 1565 L557 1565 Z " />
<glyph glyph-name="braceright" unicode="&#x7d;" horiz-adv-x="1024" d="M545 1100 L545 860 Q545 702 603 637.5 Q661 573 803 573 Q810 573 824.5 574 Q839 575 848 575 L848 485 Q839 485 824.5 486 Q810 487 803 487 Q661 487 603 423 Q545 359 545 201 L545 -39 Q545 -265 476.5 -339.5 Q408 -414 219 -414 L176 -414 L176 -326 L215 -326 Q349 -326 395.5 -275.5 Q442 -225 442 -63 L442 178 Q442 352 485.5 425 Q529 498 639 530 Q529 562 485.5 635 Q442 708 442 883 L442 1124 Q442 1286 395 1337.5 Q348 1389 213 1389 L176 1389 L176 1477 L219 1477 Q408 1477 476.5 1402 Q545 1327 545 1100 Z " />
<glyph glyph-name="asciitilde" unicode="&#x7e;" horiz-adv-x="1706" d="M1530 647 Q1424 573 1328 536.5 Q1232 500 1143 500 Q1044 500 877 561 Q861 567 855 569 Q843 573 822 581 Q655 641 565 641 Q482 641 390 603.5 Q298 566 178 481 L178 573 Q283 647 379 683 Q475 719 565 719 Q665 719 836 658 Q848 653 855 651 Q863 648 882 641 Q1050 580 1143 580 Q1226 580 1318 617.5 Q1410 655 1530 739 L1530 647 Z " />
<glyph glyph-name="Adieresis" unicode="&#xc4;" horiz-adv-x="1366" d="M379 449 L983 449 L694 1180 L668 1180 L379 449 Z M55 0 L600 1360 L762 1360 L1305 0 L1161 0 L1032 326 L330 326 L201 0 L55 0 Z M764 1573 L764 1761 L924 1761 L924 1573 L764 1573 Z M444 1573 L444 1761 L604 1761 L604 1573 L444 1573 Z " />
<glyph glyph-name="Aring" unicode="&#xc5;" horiz-adv-x="1366" d="M379 449 L983 449 L694 1180 L668 1180 L379 449 Z M55 0 L600 1360 L762 1360 L1305 0 L1161 0 L1032 326 L330 326 L201 0 L55 0 Z M539 1702 Q539 1642 580.5 1601.5 Q622 1561 682 1561 Q742 1561 782.5 1601.5 Q823 1642 823 1702 Q823 1762 782.5 1803.5 Q742 1845 682 1845 Q621 1845 580 1803.5 Q539 1762 539 1702 Z M432 1704 Q432 1808 503.5 1880 Q575 1952 680 1952 Q784 1952 856 1880 Q928 1808 928 1704 Q928 1599 856 1527.5 Q784 1456 680 1456 Q575 1456 503.5 1527.5 Q432 1599 432 1704 Z " />
<glyph glyph-name="Ccedilla" unicode="&#xc7;" horiz-adv-x="1251" d="M1102 371 Q1090 185 971.5 73 Q853 -39 672 -39 Q436 -39 313 144.5 Q190 328 190 680 Q190 1027 312.5 1213 Q435 1399 662 1399 Q838 1399 950.5 1299 Q1063 1199 1079 1026 L948 967 Q936 1124 867.5 1201 Q799 1278 672 1278 Q500 1278 415 1129 Q330 980 330 680 Q330 383 415 232.5 Q500 82 668 82 Q806 82 887.5 168 Q969 254 971 403 L1102 371 Z M461 -422 L461 -336 Q535 -353 597.5 -362 Q660 -371 707 -371 Q767 -371 797.5 -350.5 Q828 -330 828 -289 Q828 -237 795 -213.5 Q762 -190 688 -190 Q668 -190 657.5 -190.5 Q647 -191 637 -192 L637 0 L711 0 L711 -106 L733 -106 Q845 -106 902 -151 Q959 -196 959 -283 Q959 -372 896.5 -418.5 Q834 -465 713 -465 Q668 -465 608.5 -455 Q549 -445 461 -422 Z " />
<glyph glyph-name="Eacute" unicode="&#xc9;" horiz-adv-x="1366" d="M313 0 L313 1360 L1161 1360 L1161 1237 L451 1237 L451 774 L1063 774 L1063 651 L451 651 L451 123 L1184 123 L1184 0 L313 0 Z M613 1509 L822 1857 L1000 1857 L719 1509 L613 1509 Z " />
<glyph glyph-name="Ntilde" unicode="&#xd1;" horiz-adv-x="1479" d="M268 0 L268 1360 L524 1360 L1032 137 L1069 137 L1069 1360 L1206 1360 L1206 0 L952 0 L442 1223 L406 1223 L406 0 L268 0 Z M1030 1775 Q1006 1683 955 1634 Q904 1585 831 1585 Q814 1585 798.5 1587.5 Q783 1590 766 1595 L686 1622 Q674 1626 660.5 1628 Q647 1630 633 1630 Q598 1630 574.5 1614.5 Q551 1599 536 1566 L448 1566 Q470 1658 520.5 1705.5 Q571 1753 647 1753 Q661 1753 676.5 1750 Q692 1747 707 1742 L784 1716 Q797 1712 813 1710 Q829 1708 845 1708 Q882 1708 906 1724.5 Q930 1741 942 1775 L1030 1775 Z " />
<glyph glyph-name="Odieresis" unicode="&#xd6;" horiz-adv-x="1251" d="M266 680 Q266 382 348.5 233 Q431 84 596 84 Q761 84 844.5 233.5 Q928 383 928 680 Q928 977 844.5 1127.5 Q761 1278 596 1278 Q432 1278 349 1128 Q266 978 266 680 Z M125 700 Q125 1033 249 1216 Q373 1399 596 1399 Q823 1399 945 1213 Q1067 1027 1067 680 Q1067 333 945 147 Q823 -39 596 -39 Q366 -39 245.5 150 Q125 339 125 700 Z M649 1573 L649 1761 L809 1761 L809 1573 L649 1573 Z M329 1573 L329 1761 L489 1761 L489 1573 L329 1573 Z " />
<glyph glyph-name="Udieresis" unicode="&#xdc;" horiz-adv-x="1479" d="M301 1360 L440 1360 L440 410 Q440 235 509.5 160.5 Q579 86 741 86 Q850 86 915 122 Q980 158 1018 238 Q1037 278 1046 333 Q1055 388 1055 487 L1055 573 L1055 1360 L1174 1360 L1174 483 Q1174 220 1066.5 90.5 Q959 -39 741 -39 Q521 -39 411 69.5 Q301 178 301 395 L301 1360 Z M819 1573 L819 1761 L979 1761 L979 1573 L819 1573 Z M499 1573 L499 1761 L659 1761 L659 1573 L499 1573 Z " />
<glyph glyph-name="aacute" unicode="&#xe1;" horiz-adv-x="1024" d="M702 276 L702 514 L676 514 Q458 514 339.5 447.5 Q221 381 221 260 Q221 186 262.5 142 Q304 98 373 98 Q439 98 526.5 145 Q614 192 702 276 Z M686 174 Q603 76 518 25.5 Q433 -25 348 -25 Q231 -25 157.5 54 Q84 133 84 260 Q84 422 234.5 512 Q385 602 659 602 L702 602 L702 731 Q702 813 658.5 849 Q615 885 514 885 Q441 885 368.5 860.5 Q296 836 223 786 L162 909 Q257 955 348 977 Q439 999 528 999 Q624 999 696 970 Q768 941 803 889 Q819 866 826.5 823.5 Q834 781 834 702 L834 219 Q834 158 860 130 Q886 102 948 98 L948 -22 Q839 -18 777 33 Q715 84 709 174 L686 174 Z M375 1112 L584 1460 L762 1460 L481 1112 L375 1112 Z " />
<glyph glyph-name="agrave" unicode="&#xe0;" horiz-adv-x="1024" d="M702 276 L702 514 L676 514 Q458 514 339.5 447.5 Q221 381 221 260 Q221 186 262.5 142 Q304 98 373 98 Q439 98 526.5 145 Q614 192 702 276 Z M686 174 Q603 76 518 25.5 Q433 -25 348 -25 Q231 -25 157.5 54 Q84 133 84 260 Q84 422 234.5 512 Q385 602 659 602 L702 602 L702 731 Q702 813 658.5 849 Q615 885 514 885 Q441 885 368.5 860.5 Q296 836 223 786 L162 909 Q257 955 348 977 Q439 999 528 999 Q624 999 696 970 Q768 941 803 889 Q819 866 826.5 823.5 Q834 781 834 702 L834 219 Q834 158 860 130 Q886 102 948 98 L948 -22 Q839 -18 777 33 Q715 84 709 174 L686 174 Z M649 1112 L543 1112 L262 1460 L440 1460 L649 1112 Z " />
<glyph glyph-name="acircumflex" unicode="&#xe2;" horiz-adv-x="1024" d="M702 276 L702 514 L676 514 Q458 514 339.5 447.5 Q221 381 221 260 Q221 186 262.5 142 Q304 98 373 98 Q439 98 526.5 145 Q614 192 702 276 Z M686 174 Q603 76 518 25.5 Q433 -25 348 -25 Q231 -25 157.5 54 Q84 133 84 260 Q84 422 234.5 512 Q385 602 659 602 L702 602 L702 731 Q702 813 658.5 849 Q615 885 514 885 Q441 885 368.5 860.5 Q296 836 223 786 L162 909 Q257 955 348 977 Q439 999 528 999 Q624 999 696 970 Q768 941 803 889 Q819 866 826.5 823.5 Q834 781 834 702 L834 219 Q834 158 860 130 Q886 102 948 98 L948 -22 Q839 -18 777 33 Q715 84 709 174 L686 174 Z M225 1112 L422 1460 L600 1460 L797 1112 L690 1112 L512 1354 L332 1112 L225 1112 Z " />
<glyph glyph-name="adieresis" unicode="&#xe4;" horiz-adv-x="1024" d="M702 276 L702 514 L676 514 Q458 514 339.5 447.5 Q221 381 221 260 Q221 186 262.5 142 Q304 98 373 98 Q439 98 526.5 145 Q614 192 702 276 Z M686 174 Q603 76 518 25.5 Q433 -25 348 -25 Q231 -25 157.5 54 Q84 133 84 260 Q84 422 234.5 512 Q385 602 659 602 L702 602 L702 731 Q702 813 658.5 849 Q615 885 514 885 Q441 885 368.5 860.5 Q296 836 223 786 L162 909 Q257 955 348 977 Q439 999 528 999 Q624 999 696 970 Q768 941 803 889 Q819 866 826.5 823.5 Q834 781 834 702 L834 219 Q834 158 860 130 Q886 102 948 98 L948 -22 Q839 -18 777 33 Q715 84 709 174 L686 174 Z M592 1176 L592 1364 L752 1364 L752 1176 L592 1176 Z M272 1176 L272 1364 L432 1364 L432 1176 L272 1176 Z " />
<glyph glyph-name="atilde" unicode="&#xe3;" horiz-adv-x="1024" d="M702 276 L702 514 L676 514 Q458 514 339.5 447.5 Q221 381 221 260 Q221 186 262.5 142 Q304 98 373 98 Q439 98 526.5 145 Q614 192 702 276 Z M686 174 Q603 76 518 25.5 Q433 -25 348 -25 Q231 -25 157.5 54 Q84 133 84 260 Q84 422 234.5 512 Q385 602 659 602 L702 602 L702 731 Q702 813 658.5 849 Q615 885 514 885 Q441 885 368.5 860.5 Q296 836 223 786 L162 909 Q257 955 348 977 Q439 999 528 999 Q624 999 696 970 Q768 941 803 889 Q819 866 826.5 823.5 Q834 781 834 702 L834 219 Q834 158 860 130 Q886 102 948 98 L948 -22 Q839 -18 777 33 Q715 84 709 174 L686 174 Z M803 1378 Q779 1286 728 1237 Q677 1188 604 1188 Q587 1188 571.5 1190.5 Q556 1193 539 1198 L459 1225 Q447 1229 433.5 1231 Q420 1233 406 1233 Q371 1233 347.5 1217.5 Q324 1202 309 1169 L221 1169 Q243 1261 293.5 1308.5 Q344 1356 420 1356 Q434 1356 449.5 1353 Q465 1350 480 1345 L557 1319 Q570 1315 586 1313 Q602 1311 618 1311 Q655 1311 679 1327.5 Q703 1344 715 1378 L803 1378 Z " />
<glyph glyph-name="aring" unicode="&#xe5;" horiz-adv-x="1024" d="M686 174 Q603 76 518 25.5 Q433 -25 348 -25 Q231 -25 157.5 54 Q84 133 84 260 Q84 422 234.5 512 Q385 602 659 602 L702 602 L702 731 Q702 813 658.5 849 Q615 885 514 885 Q441 885 368.5 860.5 Q296 836 223 786 L162 909 Q257 955 348 977 Q439 999 528 999 Q624 999 696 970 Q768 941 803 889 Q819 866 826.5 823.5 Q834 781 834 702 L834 219 Q834 158 860 130 Q886 102 948 98 L948 -22 Q839 -18 777 33 Q715 84 709 174 L686 174 Z M358 1339 Q358 1279 400 1237.5 Q442 1196 502 1196 Q561 1196 602 1237.5 Q643 1279 643 1339 Q643 1400 602 1441.5 Q561 1483 502 1483 Q441 1483 399.5 1441.5 Q358 1400 358 1339 Z M702 276 L702 514 L676 514 Q458 514 339.5 447.5 Q221 381 221 260 Q221 186 262.5 142 Q304 98 373 98 Q439 98 526.5 145 Q614 192 702 276 Z M254 1339 Q254 1444 325.5 1515.5 Q397 1587 502 1587 Q606 1587 678 1515.5 Q750 1444 750 1339 Q750 1235 678 1163.5 Q606 1092 502 1092 Q397 1092 325.5 1163.5 Q254 1235 254 1339 Z " />
<glyph glyph-name="ccedilla" unicode="&#xe7;" horiz-adv-x="909" d="M846 178 Q791 74 708.5 24.5 Q626 -25 508 -25 Q330 -25 230.5 110 Q131 245 131 487 Q131 722 232.5 861.5 Q334 1001 502 1001 Q603 1001 682.5 956 Q762 911 834 813 L705 750 Q666 815 615 849 Q564 883 502 883 Q394 883 331 777.5 Q268 672 268 487 Q268 295 334 194.5 Q400 94 526 94 Q588 94 635 128 Q682 162 723 236 L846 178 Z M246 -422 L246 -336 Q320 -353 382.5 -362 Q445 -371 492 -371 Q552 -371 582.5 -350.5 Q613 -330 613 -289 Q613 -237 580 -213.5 Q547 -190 473 -190 Q453 -190 442.5 -190.5 Q432 -191 422 -192 L422 0 L496 0 L496 -106 L518 -106 Q630 -106 687 -151 Q744 -196 744 -283 Q744 -372 681.5 -418.5 Q619 -465 498 -465 Q453 -465 393.5 -455 Q334 -445 246 -422 Z " />
<glyph glyph-name="eacute" unicode="&#xe9;" horiz-adv-x="909" d="M788 129 Q726 54 641.5 14.5 Q557 -25 459 -25 Q282 -25 187 109.5 Q92 244 92 494 Q92 728 191 863.5 Q290 999 459 999 Q627 999 723 872 Q819 745 819 520 L819 500 L229 500 L229 453 Q229 270 290 182 Q351 94 477 94 Q531 94 585.5 122.5 Q640 151 692 207 L788 129 Z M229 608 L682 609 Q677 743 620.5 813 Q564 883 459 883 Q355 883 297.5 813.5 Q240 744 229 608 Z M330 1112 L539 1460 L717 1460 L436 1112 L330 1112 Z " />
<glyph glyph-name="egrave" unicode="&#xe8;" horiz-adv-x="909" d="M788 129 Q726 54 641.5 14.5 Q557 -25 459 -25 Q282 -25 187 109.5 Q92 244 92 494 Q92 728 191 863.5 Q290 999 459 999 Q627 999 723 872 Q819 745 819 520 L819 500 L229 500 L229 453 Q229 270 290 182 Q351 94 477 94 Q531 94 585.5 122.5 Q640 151 692 207 L788 129 Z M229 608 L682 609 Q677 743 620.5 813 Q564 883 459 883 Q355 883 297.5 813.5 Q240 744 229 608 Z M604 1112 L498 1112 L217 1460 L395 1460 L604 1112 Z " />
<glyph glyph-name="ecircumflex" unicode="&#xea;" horiz-adv-x="909" d="M788 129 Q726 54 641.5 14.5 Q557 -25 459 -25 Q282 -25 187 109.5 Q92 244 92 494 Q92 728 191 863.5 Q290 999 459 999 Q627 999 723 872 Q819 745 819 520 L819 500 L229 500 L229 453 Q229 270 290 182 Q351 94 477 94 Q531 94 585.5 122.5 Q640 151 692 207 L788 129 Z M229 608 L682 609 Q677 743 620.5 813 Q564 883 459 883 Q355 883 297.5 813.5 Q240 744 229 608 Z M180 1112 L377 1460 L555 1460 L752 1112 L645 1112 L467 1354 L287 1112 L180 1112 Z " />
<glyph glyph-name="edieresis" unicode="&#xeb;" horiz-adv-x="909" d="M788 129 Q726 54 641.5 14.5 Q557 -25 459 -25 Q282 -25 187 109.5 Q92 244 92 494 Q92 728 191 863.5 Q290 999 459 999 Q627 999 723 872 Q819 745 819 520 L819 500 L229 500 L229 453 Q229 270 290 182 Q351 94 477 94 Q531 94 585.5 122.5 Q640 151 692 207 L788 129 Z M229 608 L682 609 Q677 743 620.5 813 Q564 883 459 883 Q355 883 297.5 813.5 Q240 744 229 608 Z M547 1176 L547 1364 L707 1364 L707 1176 L547 1176 Z M227 1176 L227 1364 L387 1364 L387 1176 L227 1176 Z " />
<glyph glyph-name="iacute" unicode="&#xed;" horiz-adv-x="569" d="M221 0 L221 979 L348 979 L348 0 L221 0 Z M148 1112 L357 1460 L535 1460 L254 1112 L148 1112 Z " />
<glyph glyph-name="igrave" unicode="&#xec;" horiz-adv-x="569" d="M221 0 L221 979 L348 979 L348 0 L221 0 Z M422 1112 L316 1112 L35 1460 L213 1460 L422 1112 Z " />
<glyph glyph-name="icircumflex" unicode="&#xee;" horiz-adv-x="569" d="M221 0 L221 979 L348 979 L348 0 L221 0 Z M-2 1112 L195 1460 L373 1460 L570 1112 L463 1112 L285 1354 L105 1112 L-2 1112 Z " />
<glyph glyph-name="idieresis" unicode="&#xef;" horiz-adv-x="569" d="M221 0 L221 979 L348 979 L348 0 L221 0 Z M365 1176 L365 1364 L525 1364 L525 1176 L365 1176 Z M45 1176 L45 1364 L205 1364 L205 1176 L45 1176 Z " />
<glyph glyph-name="ntilde" unicode="&#xf1;" horiz-adv-x="1024" d="M150 0 L150 942 L283 1001 L283 782 L299 782 Q385 893 468.5 947 Q552 1001 637 1001 Q755 1001 816 921.5 Q877 842 877 688 L877 0 L743 0 L743 666 Q743 787 711 837 Q679 887 602 887 Q527 887 445.5 827.5 Q364 768 283 653 L283 0 L150 0 Z M803 1378 Q779 1286 728 1237 Q677 1188 604 1188 Q587 1188 571.5 1190.5 Q556 1193 539 1198 L459 1225 Q447 1229 433.5 1231 Q420 1233 406 1233 Q371 1233 347.5 1217.5 Q324 1202 309 1169 L221 1169 Q243 1261 293.5 1308.5 Q344 1356 420 1356 Q434 1356 449.5 1353 Q465 1350 480 1345 L557 1319 Q570 1315 586 1313 Q602 1311 618 1311 Q655 1311 679 1327.5 Q703 1344 715 1378 L803 1378 Z " />
<glyph glyph-name="oacute" unicode="&#xf3;" horiz-adv-x="995" d="M258 487 Q258 301 321.5 197.5 Q385 94 498 94 Q611 94 674 197.5 Q737 301 737 487 Q737 674 674 778.5 Q611 883 498 883 Q385 883 321.5 778.5 Q258 674 258 487 Z M121 487 Q121 724 223 861.5 Q325 999 498 999 Q670 999 772 861.5 Q874 724 874 487 Q874 251 772 113 Q670 -25 498 -25 Q325 -25 223 113 Q121 251 121 487 Z M361 1112 L570 1460 L748 1460 L467 1112 L361 1112 Z " />
<glyph glyph-name="ograve" unicode="&#xf2;" horiz-adv-x="995" d="M258 487 Q258 301 321.5 197.5 Q385 94 498 94 Q611 94 674 197.5 Q737 301 737 487 Q737 674 674 778.5 Q611 883 498 883 Q385 883 321.5 778.5 Q258 674 258 487 Z M121 487 Q121 724 223 861.5 Q325 999 498 999 Q670 999 772 861.5 Q874 724 874 487 Q874 251 772 113 Q670 -25 498 -25 Q325 -25 223 113 Q121 251 121 487 Z M635 1112 L529 1112 L248 1460 L426 1460 L635 1112 Z " />
<glyph glyph-name="ocircumflex" unicode="&#xf4;" horiz-adv-x="995" d="M258 487 Q258 301 321.5 197.5 Q385 94 498 94 Q611 94 674 197.5 Q737 301 737 487 Q737 674 674 778.5 Q611 883 498 883 Q385 883 321.5 778.5 Q258 674 258 487 Z M121 487 Q121 724 223 861.5 Q325 999 498 999 Q670 999 772 861.5 Q874 724 874 487 Q874 251 772 113 Q670 -25 498 -25 Q325 -25 223 113 Q121 251 121 487 Z M211 1112 L408 1460 L586 1460 L783 1112 L676 1112 L498 1354 L318 1112 L211 1112 Z " />
<glyph glyph-name="odieresis" unicode="&#xf6;" horiz-adv-x="995" d="M258 487 Q258 301 321.5 197.5 Q385 94 498 94 Q611 94 674 197.5 Q737 301 737 487 Q737 674 674 778.5 Q611 883 498 883 Q385 883 321.5 778.5 Q258 674 258 487 Z M121 487 Q121 724 223 861.5 Q325 999 498 999 Q670 999 772 861.5 Q874 724 874 487 Q874 251 772 113 Q670 -25 498 -25 Q325 -25 223 113 Q121 251 121 487 Z M578 1176 L578 1364 L738 1364 L738 1176 L578 1176 Z M258 1176 L258 1364 L418 1364 L418 1176 L258 1176 Z " />
<glyph glyph-name="otilde" unicode="&#xf5;" horiz-adv-x="995" d="M258 487 Q258 301 321.5 197.5 Q385 94 498 94 Q611 94 674 197.5 Q737 301 737 487 Q737 674 674 778.5 Q611 883 498 883 Q385 883 321.5 778.5 Q258 674 258 487 Z M121 487 Q121 724 223 861.5 Q325 999 498 999 Q670 999 772 861.5 Q874 724 874 487 Q874 251 772 113 Q670 -25 498 -25 Q325 -25 223 113 Q121 251 121 487 Z M789 1378 Q765 1286 714 1237 Q663 1188 590 1188 Q573 1188 557.5 1190.5 Q542 1193 525 1198 L445 1225 Q433 1229 419.5 1231 Q406 1233 392 1233 Q357 1233 333.5 1217.5 Q310 1202 295 1169 L207 1169 Q229 1261 279.5 1308.5 Q330 1356 406 1356 Q420 1356 435.5 1353 Q451 1350 466 1345 L543 1319 Q556 1315 572 1313 Q588 1311 604 1311 Q641 1311 665 1327.5 Q689 1344 701 1378 L789 1378 Z " />
<glyph glyph-name="uacute" unicode="&#xfa;" horiz-adv-x="1024" d="M877 979 L877 57 L743 0 L743 217 L725 217 Q639 106 556 52 Q473 -2 389 -2 Q271 -2 210.5 77.5 Q150 157 150 311 L150 979 L283 979 L283 334 Q283 212 315 162.5 Q347 113 424 113 Q499 113 580 173 Q661 233 743 348 L743 979 L877 979 Z M375 1112 L584 1460 L762 1460 L481 1112 L375 1112 Z " />
<glyph glyph-name="ugrave" unicode="&#xf9;" horiz-adv-x="1024" d="M877 979 L877 57 L743 0 L743 217 L725 217 Q639 106 556 52 Q473 -2 389 -2 Q271 -2 210.5 77.5 Q150 157 150 311 L150 979 L283 979 L283 334 Q283 212 315 162.5 Q347 113 424 113 Q499 113 580 173 Q661 233 743 348 L743 979 L877 979 Z M649 1112 L543 1112 L262 1460 L440 1460 L649 1112 Z " />
<glyph glyph-name="ucircumflex" unicode="&#xfb;" horiz-adv-x="1024" d="M877 979 L877 57 L743 0 L743 217 L725 217 Q639 106 556 52 Q473 -2 389 -2 Q271 -2 210.5 77.5 Q150 157 150 311 L150 979 L283 979 L283 334 Q283 212 315 162.5 Q347 113 424 113 Q499 113 580 173 Q661 233 743 348 L743 979 L877 979 Z M225 1112 L422 1460 L600 1460 L797 1112 L690 1112 L512 1354 L332 1112 L225 1112 Z " />
<glyph glyph-name="udieresis" unicode="&#xfc;" horiz-adv-x="1024" d="M877 979 L877 57 L743 0 L743 217 L725 217 Q639 106 556 52 Q473 -2 389 -2 Q271 -2 210.5 77.5 Q150 157 150 311 L150 979 L283 979 L283 334 Q283 212 315 162.5 Q347 113 424 113 Q499 113 580 173 Q661 233 743 348 L743 979 L877 979 Z M592 1176 L592 1364 L752 1364 L752 1176 L592 1176 Z M272 1176 L272 1364 L432 1364 L432 1176 L272 1176 Z " />
<glyph glyph-name="dagger" unicode="&#x2020;" horiz-adv-x="1139" d="M537 -346 Q534 -40 519.5 179 Q505 398 481 512 Q495 570 509 661.5 Q523 753 537 879 L209 829 L209 987 L537 938 L485 1360 L649 1360 L598 938 L926 987 L926 829 L598 879 Q616 717 629 636 Q642 555 655 513 Q628 385 614 176 Q600 -33 598 -346 L537 -346 Z " />
<glyph glyph-name="degree" unicode="&#xb0;" horiz-adv-x="674" d="M551 1176 Q551 1263 488 1326 Q425 1389 338 1389 Q249 1389 187 1327 Q125 1265 125 1176 Q125 1087 187.5 1025 Q250 963 338 963 Q426 963 488.5 1025 Q551 1087 551 1176 Z M338 1450 Q450 1450 530 1369.5 Q610 1289 610 1176 Q610 1062 530 982.5 Q450 903 336 903 Q221 903 142 982 Q63 1061 63 1176 Q63 1290 143.5 1370 Q224 1450 338 1450 Z " />
<glyph glyph-name="cent" unicode="&#xa2;" horiz-adv-x="1139" d="M414 199 L684 866 Q663 875 643 879 Q623 883 602 883 Q488 883 427.5 770 Q367 657 367 444 Q367 369 378.5 309.5 Q390 250 414 199 Z M219 -285 L365 70 Q294 149 261.5 248.5 Q229 348 229 487 Q229 720 331 860.5 Q433 1001 596 1001 Q628 1001 662 995 Q696 989 729 977 L844 1262 L930 1262 L803 946 Q827 930 860.5 895 Q894 860 932 813 L803 750 Q787 776 775 793.5 Q763 811 752 823 L475 139 Q505 116 536.5 105 Q568 94 606 94 Q682 94 729.5 125.5 Q777 157 821 236 L944 178 Q889 75 808 25 Q727 -25 614 -25 Q564 -25 518.5 -12 Q473 1 430 27 L305 -285 L219 -285 Z " />
<glyph glyph-name="sterling" unicode="&#xa3;" horiz-adv-x="1139" d="M184 -33 L184 127 Q291 152 338 226 Q385 300 385 444 Q385 476 381 512 Q377 548 369 594 L123 594 L123 684 L348 684 Q328 746 317.5 804.5 Q307 863 307 920 Q307 1092 404 1193 Q501 1294 666 1294 Q755 1294 835.5 1259.5 Q916 1225 997 1151 L928 1049 Q862 1119 804.5 1150.5 Q747 1182 684 1182 Q569 1182 505.5 1113 Q442 1044 442 920 Q442 867 453.5 807.5 Q465 748 487 684 L813 684 L813 594 L506 594 Q512 552 515 514 Q518 476 518 446 Q518 387 506.5 328.5 Q495 270 471 213 Q565 156 638.5 128 Q712 100 770 100 Q861 100 913 149.5 Q965 199 975 295 L1067 295 Q1054 146 974 57.5 Q894 -31 774 -31 Q705 -31 617.5 8 Q530 47 424 125 Q379 63 320 24.5 Q261 -14 184 -33 Z " />
<glyph glyph-name="section" unicode="&#xa7;" horiz-adv-x="1139" d="M326 717 Q326 680 351 635 Q376 590 446 508 Q526 417 587 373.5 Q648 330 694 330 Q744 330 775.5 359 Q807 388 807 434 Q807 477 776 529 Q745 581 666 668 Q591 750 538.5 786.5 Q486 823 442 823 Q396 823 361 792 Q326 761 326 717 Z M258 -111 L360 -37 Q405 -100 457 -135 Q509 -170 559 -170 Q621 -170 661.5 -133.5 Q702 -97 702 -43 Q702 43 534 222 Q529 227 526 229 Q503 254 459 299 Q197 569 197 698 Q197 804 257.5 864 Q318 924 426 924 Q365 987 335 1046 Q305 1105 305 1163 Q305 1266 377.5 1332.5 Q450 1399 563 1399 Q650 1399 725.5 1353.5 Q801 1308 848 1227 L748 1155 Q708 1216 661 1250 Q614 1284 569 1284 Q512 1284 474 1250.5 Q436 1217 436 1165 Q436 1126 470 1076 Q504 1026 627 903 Q630 900 636 894 Q940 593 940 434 Q940 345 878 288 Q816 231 711 223 Q771 160 801 94 Q831 28 831 -39 Q831 -150 757.5 -220.5 Q684 -291 569 -291 Q476 -291 393.5 -243.5 Q311 -196 258 -111 Z " />
<glyph glyph-name="bullet" unicode="&#x2022;" horiz-adv-x="1208" d="M307 762 Q307 885 394 971 Q481 1057 604 1057 Q726 1057 812.5 970.5 Q899 884 899 762 Q899 640 811.5 552.5 Q724 465 602 465 Q479 465 393 552 Q307 639 307 762 Z " />
<glyph glyph-name="paragraph" unicode="&#xb6;" horiz-adv-x="1024" d="M932 1415 L803 1415 L803 0 L733 0 L733 1415 L541 1415 L541 0 L471 0 L471 782 Q296 790 193 884.5 Q90 979 90 1130 Q90 1287 198.5 1383 Q307 1479 485 1479 L932 1479 L932 1415 Z " />
<glyph glyph-name="germandbls" unicode="&#xdf;" horiz-adv-x="1139" d="M186 0 L186 915 Q186 1057 207 1134.5 Q228 1212 276 1272 Q328 1334 399 1366.5 Q470 1399 555 1399 Q709 1399 810 1302 Q911 1205 911 1057 Q911 946 851.5 869 Q792 792 672 748 Q834 705 912.5 605.5 Q991 506 991 344 Q991 183 895 73 Q799 -37 659 -37 Q621 -37 583.5 -27.5 Q546 -18 508 2 L508 117 Q545 100 577.5 92 Q610 84 637 84 Q732 84 791 162.5 Q850 241 850 371 Q850 508 770 586.5 Q690 665 535 680 L535 799 Q653 817 719.5 885 Q786 953 786 1057 Q786 1154 723.5 1215 Q661 1276 563 1276 Q491 1276 437 1244 Q383 1212 352 1151 Q337 1120 330.5 1070 Q324 1020 324 883 L324 0 L186 0 Z " />
<glyph glyph-name="registered" unicode="&#xae;" horiz-adv-x="1706" d="M852 1077 L684 1077 L684 764 L852 764 Q997 764 1051.5 800 Q1106 836 1106 926 Q1106 1004 1044.5 1040.5 Q983 1077 852 1077 Z M874 1155 Q1054 1155 1138.5 1098.5 Q1223 1042 1223 922 Q1223 833 1167.5 773 Q1112 713 1020 702 L1210 309 L1079 309 L897 686 L684 686 L684 309 L569 309 L569 1155 L874 1155 Z M1511 721 Q1511 854 1462 973.5 Q1413 1093 1321 1186 Q1226 1281 1106 1330.5 Q986 1380 852 1380 Q719 1380 600.5 1331 Q482 1282 391 1190 Q296 1093 245.5 972 Q195 851 195 721 Q195 591 245 471.5 Q295 352 389 258 Q483 164 602.5 113.5 Q722 63 852 63 Q982 63 1103.5 114 Q1225 165 1321 260 Q1414 352 1462.5 469.5 Q1511 587 1511 721 Z M852 1452 Q1001 1452 1134.5 1397 Q1268 1342 1372 1237 Q1475 1135 1529 1002 Q1583 869 1583 721 Q1583 571 1529.5 441 Q1476 311 1372 209 Q1265 103 1130.5 46.5 Q996 -10 852 -10 Q707 -10 575 45.5 Q443 101 338 207 Q233 311 178 443 Q123 575 123 721 Q123 866 179 1000 Q235 1134 340 1241 Q441 1344 572 1398 Q703 1452 852 1452 Z " />
<glyph glyph-name="copyright" unicode="&#xa9;" horiz-adv-x="1706" d="M1081 918 Q1061 999 1001.5 1044.5 Q942 1090 854 1090 Q728 1090 658 992.5 Q588 895 588 719 Q588 550 659.5 452 Q731 354 854 354 Q945 354 1010 406.5 Q1075 459 1094 547 L1196 547 Q1185 424 1088 346 Q991 268 848 268 Q675 268 573 391.5 Q471 515 471 725 Q471 930 578 1053 Q685 1176 860 1176 Q992 1176 1082.5 1104 Q1173 1032 1186 918 L1081 918 Z M1511 721 Q1511 854 1462 973.5 Q1413 1093 1321 1186 Q1226 1281 1106 1330.5 Q986 1380 852 1380 Q719 1380 600.5 1331 Q482 1282 391 1190 Q296 1093 245.5 972 Q195 851 195 721 Q195 591 245 471.5 Q295 352 389 258 Q483 164 602.5 113.5 Q722 63 852 63 Q982 63 1103.5 114 Q1225 165 1321 260 Q1414 352 1462.5 469.5 Q1511 587 1511 721 Z M852 1452 Q1001 1452 1134.5 1397 Q1268 1342 1372 1237 Q1475 1135 1529 1002 Q1583 869 1583 721 Q1583 571 1529.5 441 Q1476 311 1372 209 Q1265 103 1130.5 46.5 Q996 -10 852 -10 Q707 -10 575 45.5 Q443 101 338 207 Q233 311 178 443 Q123 575 123 721 Q123 866 179 1000 Q235 1134 340 1241 Q441 1344 572 1398 Q703 1452 852 1452 Z " />
<glyph glyph-name="trademark" unicode="&#x2122;" horiz-adv-x="1706" d="M926 1454 L1100 1014 L1262 1454 L1364 1454 L1364 924 L1305 924 L1305 1403 L1124 924 L1075 924 L885 1403 L885 924 L825 924 L825 1454 L926 1454 Z M694 1454 L694 1403 L520 1403 L520 924 L453 924 L453 1403 L274 1403 L274 1454 L694 1454 Z " />
<glyph glyph-name="acute" unicode="&#xb4;" horiz-adv-x="1024" d="M375 1112 L584 1460 L762 1460 L481 1112 L375 1112 Z " />
<glyph glyph-name="dieresis" unicode="&#xa8;" horiz-adv-x="1024" d="M592 1176 L592 1364 L752 1364 L752 1176 L592 1176 Z M272 1176 L272 1364 L432 1364 L432 1176 L272 1176 Z " />
<glyph glyph-name="notequal" unicode="&#x2260;" horiz-adv-x="1706" d="M1280 1108 L1063 831 L1452 831 L1452 752 L1012 752 L793 469 L1452 469 L1452 387 L741 387 L487 63 L426 111 L641 387 L254 387 L254 469 L690 469 L911 752 L254 752 L254 831 L963 831 L1217 1157 L1280 1108 Z " />
<glyph glyph-name="AE" unicode="&#xc6;" horiz-adv-x="1976" d="M59 0 L731 1360 L1774 1360 L1774 1237 L1063 1237 L1063 774 L1675 774 L1675 651 L1063 651 L1063 123 L1796 123 L1796 0 L924 0 L924 381 L393 381 L205 0 L59 0 Z M455 504 L924 504 L924 1280 L838 1280 L455 504 Z " />
<glyph glyph-name="Oslash" unicode="&#xd8;" horiz-adv-x="1251" d="M414 147 Q448 114 490.5 98 Q533 82 586 82 Q761 82 844.5 236.5 Q928 391 928 719 Q928 852 906.5 955.5 Q885 1059 840 1145 L414 147 Z M346 207 L778 1212 Q736 1245 690.5 1261.5 Q645 1278 596 1278 Q430 1278 348 1122 Q266 966 266 647 Q266 507 286 398 Q306 289 346 207 Z M119 -336 L295 76 Q207 194 166 339 Q125 484 125 680 Q125 1027 247 1213 Q369 1399 596 1399 Q656 1399 712 1382 Q768 1365 825 1329 L936 1591 L1028 1591 L895 1280 Q982 1186 1024.5 1037 Q1067 888 1067 680 Q1067 333 945 147 Q823 -39 596 -39 Q538 -39 481.5 -21.5 Q425 -4 367 33 L211 -336 L119 -336 Z " />
<glyph glyph-name="infinity" unicode="&#x221e;" horiz-adv-x="1706" d="M889 557 Q943 454 1014 403 Q1085 352 1176 352 Q1283 352 1352 430 Q1421 508 1421 629 Q1421 748 1357.5 825.5 Q1294 903 1198 903 Q1111 903 1040.5 825.5 Q970 748 889 557 Z M819 670 Q767 772 695.5 823 Q624 874 532 874 Q424 874 355.5 796.5 Q287 719 287 598 Q287 480 350.5 403 Q414 326 510 326 Q598 326 668 402 Q738 478 819 670 Z M836 713 Q902 852 982 919.5 Q1062 987 1159 987 Q1289 987 1378.5 881 Q1468 775 1468 616 Q1468 451 1388 349.5 Q1308 248 1178 248 Q1084 248 1012.5 308.5 Q941 369 870 510 Q799 371 721.5 306.5 Q644 242 549 242 Q419 242 328.5 348.5 Q238 455 238 612 Q238 778 318 879.5 Q398 981 528 981 Q626 981 700.5 916.5 Q775 852 836 713 Z " />
<glyph glyph-name="plusminus" unicode="&#xb1;" horiz-adv-x="1706" d="M1452 141 L1452 59 L254 59 L254 141 L1452 141 Z M893 1161 L893 807 L1452 807 L1452 727 L893 727 L893 375 L813 375 L813 727 L254 727 L254 807 L813 807 L813 1161 L893 1161 Z " />
<glyph glyph-name="lessequal" unicode="&#x2264;" horiz-adv-x="1706" d="M1442 129 L1442 49 L264 49 L264 129 L1442 129 Z M1442 1083 L399 733 L1442 381 L1442 293 L264 698 L264 768 L1442 1171 L1442 1083 Z " />
<glyph glyph-name="greaterequal" unicode="&#x2265;" horiz-adv-x="1706" d="M1442 129 L1442 49 L264 49 L264 129 L1442 129 Z M1442 768 L1442 698 L264 293 L264 381 L1307 733 L264 1083 L264 1171 L1442 768 Z " />
<glyph glyph-name="yen" unicode="&#xa5;" horiz-adv-x="1366" d="M598 0 L598 449 L211 449 L211 539 L549 539 L127 1266 L272 1266 L651 608 L674 608 L1053 1266 L1198 1266 L776 539 L1114 539 L1114 449 L727 449 L727 0 L598 0 Z " />
<glyph glyph-name="mu" unicode="&#xb5;" horiz-adv-x="1094" d="M326 1063 L203 473 Q194 430 190 396 Q186 362 186 332 Q186 206 246 140 Q306 74 420 74 Q547 74 639.5 183 Q732 292 776 496 L901 1063 L1022 1063 L856 277 Q854 268 851 253 Q831 161 831 141 Q831 110 848.5 94 Q866 78 899 78 Q908 78 917.5 78.5 Q927 79 938 80 L920 -16 Q917 -17 912 -18 Q863 -29 844 -29 Q776 -29 743.5 2.5 Q711 34 711 98 Q711 105 711.5 114 Q712 123 715 143 Q672 60 591.5 15.5 Q511 -29 403 -29 Q306 -29 233.5 16.5 Q161 62 129 143 L10 -424 L-111 -424 L205 1063 L326 1063 Z " />
<glyph glyph-name="partialdiff" unicode="&#x2202;" horiz-adv-x="1024" d="M750 578 Q761 647 766.5 722.5 Q772 798 772 883 Q772 1062 734 1149.5 Q696 1237 618 1237 Q573 1237 518.5 1163.5 Q464 1090 410 1090 Q381 1090 361.5 1108.5 Q342 1127 342 1155 Q342 1214 403 1257 Q464 1300 551 1300 Q711 1300 805 1153 Q899 1006 899 752 Q899 417 767.5 195 Q636 -27 444 -27 Q305 -27 220 78 Q135 183 135 358 Q135 531 242 654.5 Q349 778 500 778 Q597 778 658.5 729 Q720 680 750 578 Z M713 459 Q713 584 666 649.5 Q619 715 528 715 Q411 715 337.5 590 Q264 465 264 260 Q264 143 311.5 80.5 Q359 18 449 18 Q563 18 638 143.5 Q713 269 713 459 Z " />
<glyph glyph-name="summation" unicode="&#x2211;" horiz-adv-x="1290" d="M45 1473 L1253 1473 L1253 1350 L215 1350 L936 563 L176 -272 L1253 -272 L1253 -393 L10 -393 L10 -266 L762 563 L45 1350 L45 1473 Z " />
<glyph glyph-name="product" unicode="&#x220f;" horiz-adv-x="1491" d="M164 1473 L1327 1473 L1327 -393 L1192 -393 L1192 1350 L299 1350 L299 -393 L164 -393 L164 1473 Z " />
<glyph glyph-name="pi" unicode="&#x3c0;" horiz-adv-x="1155" d="M1102 958 L920 958 L801 393 Q787 331 779.5 282 Q772 233 772 205 Q772 146 796.5 122 Q821 98 881 98 Q908 98 930.5 100.5 Q953 103 973 108 L948 0 Q919 -9 896 -12.5 Q873 -16 852 -16 Q760 -16 706.5 38 Q653 92 653 186 Q653 233 664.5 308.5 Q676 384 709 537 L797 958 L416 958 L213 0 L92 0 L293 958 L254 958 Q199 958 168.5 926 Q138 894 127 825 L6 825 Q31 960 91 1011.5 Q151 1063 297 1063 L1126 1063 L1102 958 Z " />
<glyph glyph-name="integral" unicode="&#x222b;" horiz-adv-x="948" d="M401 578 Q401 1076 487.5 1311 Q574 1546 756 1546 Q821 1546 862 1511 Q903 1476 903 1421 Q903 1376 875.5 1349.5 Q848 1323 801 1323 Q724 1323 699.5 1387.5 Q675 1452 666 1452 Q599 1452 573 1293 Q547 1134 547 606 Q547 97 461.5 -137 Q376 -371 193 -371 Q129 -371 87 -336.5 Q45 -302 45 -252 Q45 -204 73.5 -174.5 Q102 -145 150 -145 Q183 -145 206 -158.5 Q229 -172 246 -201 Q254 -215 258.5 -245.5 Q263 -276 283 -276 Q349 -276 375 -111 Q401 54 401 578 Z " />
<glyph glyph-name="ordfeminine" unicode="&#xaa;" horiz-adv-x="768" d="M526 870 L526 1036 L508 1036 Q344 1036 255 989.5 Q166 943 166 858 Q166 806 197 775.5 Q228 745 281 745 Q331 745 396 778 Q461 811 526 870 Z M514 799 Q453 730 389 694.5 Q325 659 262 659 Q173 659 118 714 Q63 769 63 858 Q63 972 176.5 1035 Q290 1098 496 1098 L526 1098 L526 1188 Q526 1245 494 1269.5 Q462 1294 385 1294 Q330 1294 276 1277.5 Q222 1261 168 1227 L121 1313 Q194 1345 262.5 1360.5 Q331 1376 397 1376 Q469 1376 523 1355.5 Q577 1335 602 1298 Q614 1282 619.5 1252.5 Q625 1223 625 1167 L625 829 Q625 786 645 766.5 Q665 747 711 745 L711 660 Q629 663 583.5 698.5 Q538 734 532 799 L514 799 Z " />
<glyph glyph-name="ordmasculine" unicode="&#xba;" horiz-adv-x="748" d="M195 1018 Q195 886 241.5 813.5 Q288 741 373 741 Q458 741 505.5 814 Q553 887 553 1018 Q553 1148 505 1221 Q457 1294 373 1294 Q289 1294 242 1221 Q195 1148 195 1018 Z M90 1018 Q90 1182 167 1279 Q244 1376 373 1376 Q502 1376 578.5 1279.5 Q655 1183 655 1018 Q655 852 578.5 755.5 Q502 659 373 659 Q244 659 167 756 Q90 853 90 1018 Z " />
<glyph glyph-name="Omega" unicode="&#x3a9;" horiz-adv-x="1585" d="M1452 121 L1452 0 L879 0 L879 102 Q1097 238 1207 409.5 Q1317 581 1317 786 Q1317 1055 1170.5 1224 Q1024 1393 793 1393 Q562 1393 415 1224 Q268 1055 268 786 Q268 581 378 409.5 Q488 238 707 102 L707 0 L135 0 L135 121 L489 121 Q306 253 217.5 416.5 Q129 580 129 786 Q129 1103 317.5 1308 Q506 1513 793 1513 Q1079 1513 1267.5 1308 Q1456 1103 1456 786 Q1456 580 1367.5 416.5 Q1279 253 1096 121 L1452 121 Z " />
<glyph glyph-name="ae" unicode="&#xe6;" horiz-adv-x="1507" d="M733 223 Q645 104 545 39.5 Q445 -25 348 -25 Q231 -25 157.5 54 Q84 133 84 260 Q84 422 234.5 512 Q385 602 659 602 L702 602 L702 731 Q702 803 652.5 844 Q603 885 514 885 Q441 885 368.5 860.5 Q296 836 223 786 L162 909 Q263 955 350.5 977 Q438 999 514 999 Q623 999 694.5 961 Q766 923 799 848 Q848 924 913 961.5 Q978 999 1061 999 Q1229 999 1325 872.5 Q1421 746 1421 522 L1421 496 L831 496 L831 457 Q831 270 891.5 182 Q952 94 1079 94 Q1133 94 1187.5 122.5 Q1242 151 1294 207 L1389 129 Q1325 53 1242 14 Q1159 -25 1061 -25 Q939 -25 857.5 37 Q776 99 733 223 Z M834 602 L1284 603 Q1279 739 1221.5 811 Q1164 883 1059 883 Q954 883 896 810.5 Q838 738 834 602 Z M702 276 L702 514 L676 514 Q458 514 339.5 447.5 Q221 381 221 260 Q221 186 262.5 142 Q304 98 373 98 Q439 98 526.5 145 Q614 192 702 276 Z " />
<glyph glyph-name="oslash" unicode="&#xf8;" horiz-adv-x="995" d="M373 135 Q401 114 431.5 104 Q462 94 498 94 Q611 94 674 197.5 Q737 301 737 487 Q737 605 722.5 672.5 Q708 740 676 776 L373 135 Z M315 199 L627 840 Q595 862 563.5 872.5 Q532 883 498 883 Q385 883 321.5 778.5 Q258 674 258 487 Q258 389 271.5 321 Q285 253 315 199 Z M82 -283 L258 76 Q190 142 155.5 245.5 Q121 349 121 487 Q121 720 222 860.5 Q323 1001 487 1001 Q539 1001 586.5 987 Q634 973 680 944 L825 1247 L915 1247 L745 897 Q810 826 842 723 Q874 620 874 487 Q874 251 772 113 Q670 -25 498 -25 Q455 -25 412.5 -11.5 Q370 2 326 29 L172 -283 L82 -283 Z " />
<glyph glyph-name="questiondown" unicode="&#xbf;" horiz-adv-x="1024" d="M657 1247 Q657 1198 621.5 1162 Q586 1126 537 1126 Q486 1126 451 1161.5 Q416 1197 416 1247 Q416 1296 451.5 1332 Q487 1368 537 1368 Q586 1368 621.5 1332 Q657 1296 657 1247 Z M608 885 L608 786 Q608 735 579.5 679 Q551 623 492 559 Q478 545 453 518 Q307 360 307 262 Q307 176 362 128 Q417 80 514 80 Q597 80 657.5 123.5 Q718 167 758 256 L883 203 Q816 82 722 21.5 Q628 -39 508 -39 Q357 -39 260.5 45 Q164 129 164 260 Q164 329 191 388 Q218 447 309 545 Q319 555 339 577 Q477 725 481 813 L481 885 L608 885 Z " />
<glyph glyph-name="exclamdown" unicode="&#xa1;" horiz-adv-x="797" d="M274 1247 Q274 1296 311 1332 Q348 1368 397 1368 Q446 1368 482 1332 Q518 1296 518 1247 Q518 1197 483 1161.5 Q448 1126 397 1126 Q348 1126 311 1162 Q274 1198 274 1247 Z M350 918 L442 918 L469 0 L324 0 L350 918 Z " />
<glyph glyph-name="logicalnot" unicode="&#xac;" horiz-adv-x="1706" d="M1452 856 L1452 354 L1374 354 L1374 774 L254 774 L254 856 L1452 856 Z " />
<glyph glyph-name="radical" unicode="&#x221a;" horiz-adv-x="1264" d="M1264 1626 L1264 1565 L1135 1565 L539 -41 L508 -41 L178 866 L68 827 L53 877 L283 956 L561 197 L1092 1626 L1264 1626 Z " />
<glyph glyph-name="florin" unicode="&#x192;" horiz-adv-x="1139" d="M35 -295 L88 -172 Q121 -204 149.5 -218.5 Q178 -233 205 -233 Q287 -233 338 -109.5 Q389 14 453 422 L502 739 L215 739 L215 852 L518 852 Q568 1186 646 1312 Q724 1438 870 1438 Q910 1438 953 1424 Q996 1410 1047 1380 L989 1255 Q958 1285 927 1299 Q896 1313 862 1313 Q727 1313 656 867 L654 852 L934 852 L934 739 L639 739 L586 395 Q553 180 519 32 Q485 -116 457 -170 Q410 -260 346.5 -308 Q283 -356 211 -356 Q169 -356 126.5 -341.5 Q84 -327 35 -295 Z " />
<glyph glyph-name="approxequal" unicode="&#x2248;" horiz-adv-x="1706" d="M1530 485 Q1424 411 1328 374.5 Q1232 338 1143 338 Q1037 338 847.5 408.5 Q658 479 565 479 Q482 479 394 443.5 Q306 408 178 319 L178 412 Q283 485 379 521 Q475 557 565 557 Q671 557 860.5 487.5 Q1050 418 1143 418 Q1226 418 1314 453.5 Q1402 489 1530 578 L1530 485 Z M1530 809 Q1425 736 1329.5 700 Q1234 664 1143 664 Q1037 664 847.5 733.5 Q658 803 565 803 Q482 803 394 767.5 Q306 732 178 643 L178 735 Q284 810 380 846.5 Q476 883 565 883 Q671 883 860.5 812 Q1050 741 1143 741 Q1224 741 1311.5 777 Q1399 813 1530 903 L1530 809 Z " />
<glyph glyph-name="increment" unicode="&#x2206;" horiz-adv-x="1335" d="M1155 121 L668 1354 L178 121 L1155 121 Z M754 1473 L1346 0 L-12 0 L582 1473 L754 1473 Z " />
<glyph glyph-name="guillemotleft" unicode="&#xab;" horiz-adv-x="1024" d="M731 160 L467 483 L731 807 L868 807 L604 483 L868 160 L731 160 Z M383 160 L121 483 L383 807 L520 807 L256 483 L520 160 L383 160 Z " />
<glyph glyph-name="guillemotright" unicode="&#xbb;" horiz-adv-x="1024" d="M272 160 L135 160 L399 483 L135 807 L272 807 L537 483 L272 160 Z M618 160 L483 160 L745 483 L483 807 L618 807 L883 483 L618 160 Z " />
<glyph glyph-name="ellipsis" unicode="&#x2026;" horiz-adv-x="2048" d="M211 113 Q211 162 246.5 197.5 Q282 233 331 233 Q382 233 417 198 Q452 163 452 113 Q452 63 416.5 27.5 Q381 -8 331 -8 Q282 -8 246.5 27.5 Q211 63 211 113 Z M893 113 Q893 162 928.5 197.5 Q964 233 1013 233 Q1064 233 1099 198 Q1134 163 1134 113 Q1134 63 1098.5 27.5 Q1063 -8 1013 -8 Q964 -8 928.5 27.5 Q893 63 893 113 Z M1577 113 Q1577 162 1612.5 197.5 Q1648 233 1697 233 Q1748 233 1783 198 Q1818 163 1818 113 Q1818 63 1782.5 27.5 Q1747 -8 1697 -8 Q1648 -8 1612.5 27.5 Q1577 63 1577 113 Z " />
<glyph glyph-name="nbspace" unicode="&#xa0;" horiz-adv-x="1139" d="" />
<glyph glyph-name="Agrave" unicode="&#xc0;" horiz-adv-x="1366" d="M379 449 L983 449 L694 1180 L668 1180 L379 449 Z M55 0 L600 1360 L762 1360 L1305 0 L1161 0 L1032 326 L330 326 L201 0 L55 0 Z M821 1509 L715 1509 L434 1857 L612 1857 L821 1509 Z " />
<glyph glyph-name="Atilde" unicode="&#xc3;" horiz-adv-x="1366" d="M379 449 L983 449 L694 1180 L668 1180 L379 449 Z M55 0 L600 1360 L762 1360 L1305 0 L1161 0 L1032 326 L330 326 L201 0 L55 0 Z M975 1775 Q951 1683 900 1634 Q849 1585 776 1585 Q759 1585 743.5 1587.5 Q728 1590 711 1595 L631 1622 Q619 1626 605.5 1628 Q592 1630 578 1630 Q543 1630 519.5 1614.5 Q496 1599 481 1566 L393 1566 Q415 1658 465.5 1705.5 Q516 1753 592 1753 Q606 1753 621.5 1750 Q637 1747 652 1742 L729 1716 Q742 1712 758 1710 Q774 1708 790 1708 Q827 1708 851 1724.5 Q875 1741 887 1775 L975 1775 Z " />
<glyph glyph-name="Otilde" unicode="&#xd5;" horiz-adv-x="1251" d="M266 680 Q266 382 348.5 233 Q431 84 596 84 Q761 84 844.5 233.5 Q928 383 928 680 Q928 977 844.5 1127.5 Q761 1278 596 1278 Q432 1278 349 1128 Q266 978 266 680 Z M125 700 Q125 1033 249 1216 Q373 1399 596 1399 Q823 1399 945 1213 Q1067 1027 1067 680 Q1067 333 945 147 Q823 -39 596 -39 Q366 -39 245.5 150 Q125 339 125 700 Z M860 1775 Q836 1683 785 1634 Q734 1585 661 1585 Q644 1585 628.5 1587.5 Q613 1590 596 1595 L516 1622 Q504 1626 490.5 1628 Q477 1630 463 1630 Q428 1630 404.5 1614.5 Q381 1599 366 1566 L278 1566 Q300 1658 350.5 1705.5 Q401 1753 477 1753 Q491 1753 506.5 1750 Q522 1747 537 1742 L614 1716 Q627 1712 643 1710 Q659 1708 675 1708 Q712 1708 736 1724.5 Q760 1741 772 1775 L860 1775 Z " />
<glyph glyph-name="OE" unicode="&#x152;" horiz-adv-x="1982" d="M930 272 L930 1090 Q930 1170 881.5 1204.5 Q833 1239 717 1239 Q475 1239 369.5 1109 Q264 979 264 680 Q264 381 369 252 Q474 123 717 123 Q833 123 881.5 157.5 Q930 192 930 272 Z M678 0 Q400 0 261.5 169.5 Q123 339 123 680 Q123 1021 261.5 1190.5 Q400 1360 678 1360 L1778 1360 L1778 1237 L1067 1237 L1067 774 L1679 774 L1679 651 L1067 651 L1067 123 L1800 123 L1800 0 L678 0 Z " />
<glyph glyph-name="oe" unicode="&#x153;" horiz-adv-x="1554" d="M805 174 Q754 75 677.5 25 Q601 -25 498 -25 Q325 -25 223 113 Q121 251 121 487 Q121 724 223 861.5 Q325 999 498 999 Q603 999 675 950 Q747 901 805 788 Q846 891 923 945 Q1000 999 1104 999 Q1272 999 1368 872 Q1464 745 1464 520 L1464 500 L874 500 L874 453 Q874 270 935 182 Q996 94 1122 94 Q1176 94 1230.5 122.5 Q1285 151 1337 207 L1434 129 Q1371 54 1286.5 14.5 Q1202 -25 1104 -25 Q992 -25 917 25 Q842 75 805 174 Z M258 487 Q258 301 321.5 197.5 Q385 94 498 94 Q611 94 674 197.5 Q737 301 737 487 Q737 674 674 778.5 Q611 883 498 883 Q385 883 321.5 778.5 Q258 674 258 487 Z M874 608 L1327 608 Q1321 744 1264 813.5 Q1207 883 1102 883 Q999 883 942 814 Q885 745 874 608 Z " />
<glyph glyph-name="endash" unicode="&#x2013;" horiz-adv-x="1024" d="M0 442 L0 532 L1024 532 L1024 442 L0 442 Z " />
<glyph glyph-name="emdash" unicode="&#x2014;" horiz-adv-x="2048" d="M0 532 L2048 532 L2048 442 L0 442 L0 532 Z " />
<glyph glyph-name="quotedblleft" unicode="&#x201c;" horiz-adv-x="1139" d="M858 760 L625 1360 L758 1360 L991 760 L858 760 Z M377 760 L143 1360 L276 1360 L510 760 L377 760 Z " />
<glyph glyph-name="quotedblright" unicode="&#x201d;" horiz-adv-x="1139" d="M758 760 L625 760 L858 1360 L991 1360 L758 760 Z M276 760 L143 760 L377 1360 L510 1360 L276 760 Z " />
<glyph glyph-name="quoteleft" unicode="&#x2018;" horiz-adv-x="569" d="M332 760 L100 1360 L231 1360 L465 760 L332 760 Z " />
<glyph glyph-name="quoteright" unicode="&#x2019;" horiz-adv-x="569" d="M231 760 L100 760 L332 1360 L465 1360 L231 760 Z " />
<glyph glyph-name="divide" unicode="&#xf7;" horiz-adv-x="1706" d="M854 365 Q895 365 923.5 335.5 Q952 306 952 264 Q952 224 923.5 195 Q895 166 854 166 Q813 166 784.5 194.5 Q756 223 756 264 Q756 305 785 335 Q814 365 854 365 Z M1452 651 L1452 569 L254 569 L254 651 L1452 651 Z M854 1055 Q895 1055 923.5 1026.5 Q952 998 952 956 Q952 916 923.5 886 Q895 856 854 856 Q813 856 784.5 885.5 Q756 915 756 956 Q756 997 784.5 1026 Q813 1055 854 1055 Z " />
<glyph glyph-name="lozenge" unicode="&#x25ca;" horiz-adv-x="1012" d="M506 1409 L121 592 L506 -233 L891 592 L506 1409 Z M506 1653 L1006 592 L506 -477 L6 592 L506 1653 Z " />
<glyph glyph-name="ydieresis" unicode="&#xff;" horiz-adv-x="909" d="M39 -305 L39 -143 L88 -143 Q114 -174 143.5 -189.5 Q173 -205 205 -205 Q259 -205 294 -167.5 Q329 -130 365 -33 L397 63 L55 979 L193 979 L453 256 L469 256 L733 979 L872 979 L471 -106 Q427 -221 360.5 -272.5 Q294 -324 188 -324 Q156 -324 117.5 -319 Q79 -314 39 -305 Z M535 1176 L535 1364 L695 1364 L695 1176 L535 1176 Z M215 1176 L215 1364 L375 1364 L375 1176 L215 1176 Z " />
<glyph glyph-name="Ydieresis" unicode="&#x178;" horiz-adv-x="1366" d="M612 0 L612 487 L111 1360 L260 1360 L668 653 L692 653 L1100 1360 L1251 1360 L750 487 L750 0 L612 0 Z M764 1573 L764 1761 L924 1761 L924 1573 L764 1573 Z M444 1573 L444 1761 L604 1761 L604 1573 L444 1573 Z " />
<glyph glyph-name="fraction" unicode="&#x2215;" horiz-adv-x="342" d="M-342 -33 L573 1294 L682 1294 L-231 -33 L-342 -33 Z " />
<glyph glyph-name="currency" unicode="&#xa4;" horiz-adv-x="1241" d="M954 887 Q954 1024 857.5 1120.5 Q761 1217 623 1217 Q485 1217 388 1120 Q291 1023 291 887 Q291 749 388 652 Q485 555 623 555 Q760 555 857 652 Q954 749 954 887 Z M358 1204 Q418 1252 483 1275 Q548 1298 621 1298 Q693 1298 759 1274.5 Q825 1251 885 1204 L1090 1411 L1149 1352 L942 1147 Q987 1089 1010.5 1022.5 Q1034 956 1034 885 Q1034 812 1011 746.5 Q988 681 942 623 L1149 418 L1090 358 L885 565 Q827 520 760 496.5 Q693 473 621 473 Q547 473 482 496 Q417 519 358 565 L152 358 L94 418 L301 623 Q256 680 232.5 746.5 Q209 813 209 885 Q209 956 232.5 1022.5 Q256 1089 301 1147 L94 1352 L152 1411 L358 1204 Z " />
<glyph glyph-name="guilsinglleft" unicode="&#x2039;" horiz-adv-x="682" d="M362 160 L100 483 L362 807 L500 807 L236 483 L500 160 L362 160 Z " />
<glyph glyph-name="guilsinglright" unicode="&#x203a;" horiz-adv-x="682" d="M319 160 L182 160 L446 483 L182 807 L319 807 L584 483 L319 160 Z " />
<glyph glyph-name="fi" unicode="&#xf001;" horiz-adv-x="1200" d="M268 0 L268 838 L80 838 L80 944 L268 944 L268 1098 Q268 1269 358 1353.5 Q448 1438 631 1438 Q703 1438 776.5 1420 Q850 1402 932 1364 L932 1227 Q848 1274 771.5 1296.5 Q695 1319 623 1319 Q499 1319 450 1270.5 Q401 1222 401 1085 L401 944 L1001 944 L1001 0 L868 0 L868 838 L401 838 L401 0 L268 0 Z " />
<glyph glyph-name="fl" unicode="&#xf002;" horiz-adv-x="1200" d="M401 944 L868 944 L868 1264 Q796 1291 734.5 1305 Q673 1319 621 1319 Q498 1319 449.5 1270.5 Q401 1222 401 1085 L401 944 Z M268 0 L268 838 L80 838 L80 944 L268 944 L268 1098 Q268 1269 358 1353.5 Q448 1438 631 1438 Q692 1438 754 1424.5 Q816 1411 883 1384 L1001 1436 L1001 0 L868 0 L868 838 L401 838 L401 0 L268 0 Z " />
<glyph glyph-name="daggerdbl" unicode="&#x2021;" horiz-adv-x="1139" d="M483 518 L486 531 Q535 793 539 879 L211 829 L211 987 L539 938 L485 1360 L651 1360 L598 938 L926 987 L926 829 L598 879 Q609 779 622.5 689 Q636 599 653 518 Q626 366 615 290 Q604 214 600 160 L926 207 L926 51 L600 100 L651 -324 L487 -324 L539 100 L211 51 L211 207 L539 160 Q533 238 519 327 Q505 416 483 518 Z " />
<glyph glyph-name="middot" unicode="&#xb7;" horiz-adv-x="569" d="M162 614 Q162 664 198 701.5 Q234 739 283 739 Q333 739 368 702.5 Q403 666 403 614 Q403 565 367 528.5 Q331 492 283 492 Q234 492 198 528.5 Q162 565 162 614 Z " />
<glyph glyph-name="quotesinglbase" unicode="&#x201a;" horiz-adv-x="569" d="M178 -385 L45 -385 L279 215 L410 215 L178 -385 Z " />
<glyph glyph-name="quotedblbase" unicode="&#x201e;" horiz-adv-x="1139" d="M702 -385 L569 -385 L803 215 L936 215 L702 -385 Z M221 -385 L88 -385 L322 215 L455 215 L221 -385 Z " />
<glyph glyph-name="perthousand" unicode="&#x2030;" horiz-adv-x="2570" d="M1786 291 Q1786 411 1870.5 495.5 Q1955 580 2075 580 Q2195 580 2279 495.5 Q2363 411 2363 291 Q2363 170 2279.5 85 Q2196 0 2075 0 Q1955 0 1870.5 85.5 Q1786 171 1786 291 Z M1894 289 Q1894 214 1947 161.5 Q2000 109 2075 109 Q2150 109 2203.5 161.5 Q2257 214 2257 289 Q2257 364 2203.5 417.5 Q2150 471 2075 471 Q2000 471 1947 417.5 Q1894 364 1894 289 Z M1174 289 Q1174 215 1227.5 162 Q1281 109 1356 109 Q1431 109 1483.5 161.5 Q1536 214 1536 289 Q1536 364 1483.5 417.5 Q1431 471 1356 471 Q1281 471 1227.5 417.5 Q1174 364 1174 289 Z M1067 291 Q1067 411 1151.5 495.5 Q1236 580 1356 580 Q1477 580 1561 495.5 Q1645 411 1645 291 Q1645 170 1561 85 Q1477 0 1356 0 Q1236 0 1151.5 85.5 Q1067 171 1067 291 Z M459 -33 L1280 1294 L1391 1294 L569 -33 L459 -33 Z M313 973 Q313 898 366 844.5 Q419 791 494 791 Q569 791 622.5 844.5 Q676 898 676 973 Q676 1048 622.5 1100.5 Q569 1153 494 1153 Q418 1153 365.5 1100.5 Q313 1048 313 973 Z M205 973 Q205 1093 289.5 1177.5 Q374 1262 494 1262 Q615 1262 699.5 1177.5 Q784 1093 784 973 Q784 852 699.5 768 Q615 684 494 684 Q374 684 289.5 768.5 Q205 853 205 973 Z " />
<glyph glyph-name="Acircumflex" unicode="&#xc2;" horiz-adv-x="1366" d="M379 449 L983 449 L694 1180 L668 1180 L379 449 Z M55 0 L600 1360 L762 1360 L1305 0 L1161 0 L1032 326 L330 326 L201 0 L55 0 Z M397 1509 L594 1857 L772 1857 L969 1509 L862 1509 L684 1751 L504 1509 L397 1509 Z " />
<glyph glyph-name="Ecircumflex" unicode="&#xca;" horiz-adv-x="1366" d="M313 0 L313 1360 L1161 1360 L1161 1237 L451 1237 L451 774 L1063 774 L1063 651 L451 651 L451 123 L1184 123 L1184 0 L313 0 Z M463 1509 L660 1857 L838 1857 L1035 1509 L928 1509 L750 1751 L570 1509 L463 1509 Z " />
<glyph glyph-name="Aacute" unicode="&#xc1;" horiz-adv-x="1366" d="M379 449 L983 449 L694 1180 L668 1180 L379 449 Z M55 0 L600 1360 L762 1360 L1305 0 L1161 0 L1032 326 L330 326 L201 0 L55 0 Z M547 1509 L756 1857 L934 1857 L653 1509 L547 1509 Z " />
<glyph glyph-name="Edieresis" unicode="&#xcb;" horiz-adv-x="1366" d="M313 0 L313 1360 L1161 1360 L1161 1237 L451 1237 L451 774 L1063 774 L1063 651 L451 651 L451 123 L1184 123 L1184 0 L313 0 Z M830 1573 L830 1761 L990 1761 L990 1573 L830 1573 Z M510 1573 L510 1761 L670 1761 L670 1573 L510 1573 Z " />
<glyph glyph-name="Egrave" unicode="&#xc8;" horiz-adv-x="1366" d="M313 0 L313 1360 L1161 1360 L1161 1237 L451 1237 L451 774 L1063 774 L1063 651 L451 651 L451 123 L1184 123 L1184 0 L313 0 Z M887 1509 L781 1509 L500 1857 L678 1857 L887 1509 Z " />
<glyph glyph-name="Iacute" unicode="&#xcd;" horiz-adv-x="797" d="M188 0 L188 80 L332 80 L332 1280 L188 1280 L188 1360 L616 1360 L616 1280 L473 1280 L473 80 L616 80 L616 0 L188 0 Z M262 1509 L471 1857 L649 1857 L368 1509 L262 1509 Z " />
<glyph glyph-name="Icircumflex" unicode="&#xce;" horiz-adv-x="797" d="M188 0 L188 80 L332 80 L332 1280 L188 1280 L188 1360 L616 1360 L616 1280 L473 1280 L473 80 L616 80 L616 0 L188 0 Z M112 1509 L309 1857 L487 1857 L684 1509 L577 1509 L399 1751 L219 1509 L112 1509 Z " />
<glyph glyph-name="Idieresis" unicode="&#xcf;" horiz-adv-x="797" d="M188 0 L188 80 L332 80 L332 1280 L188 1280 L188 1360 L616 1360 L616 1280 L473 1280 L473 80 L616 80 L616 0 L188 0 Z M479 1573 L479 1761 L639 1761 L639 1573 L479 1573 Z M159 1573 L159 1761 L319 1761 L319 1573 L159 1573 Z " />
<glyph glyph-name="Igrave" unicode="&#xcc;" horiz-adv-x="797" d="M188 0 L188 80 L332 80 L332 1280 L188 1280 L188 1360 L616 1360 L616 1280 L473 1280 L473 80 L616 80 L616 0 L188 0 Z M536 1509 L430 1509 L149 1857 L327 1857 L536 1509 Z " />
<glyph glyph-name="Oacute" unicode="&#xd3;" horiz-adv-x="1251" d="M266 680 Q266 382 348.5 233 Q431 84 596 84 Q761 84 844.5 233.5 Q928 383 928 680 Q928 977 844.5 1127.5 Q761 1278 596 1278 Q432 1278 349 1128 Q266 978 266 680 Z M125 700 Q125 1033 249 1216 Q373 1399 596 1399 Q823 1399 945 1213 Q1067 1027 1067 680 Q1067 333 945 147 Q823 -39 596 -39 Q366 -39 245.5 150 Q125 339 125 700 Z M432 1509 L641 1857 L819 1857 L538 1509 L432 1509 Z " />
<glyph glyph-name="Ocircumflex" unicode="&#xd4;" horiz-adv-x="1251" d="M266 680 Q266 382 348.5 233 Q431 84 596 84 Q761 84 844.5 233.5 Q928 383 928 680 Q928 977 844.5 1127.5 Q761 1278 596 1278 Q432 1278 349 1128 Q266 978 266 680 Z M125 700 Q125 1033 249 1216 Q373 1399 596 1399 Q823 1399 945 1213 Q1067 1027 1067 680 Q1067 333 945 147 Q823 -39 596 -39 Q366 -39 245.5 150 Q125 339 125 700 Z M282 1509 L479 1857 L657 1857 L854 1509 L747 1509 L569 1751 L389 1509 L282 1509 Z " />
<glyph glyph-name="apple" unicode="&#xf000;" horiz-adv-x="1618" d="M836 1216 Q835 1222 834.5 1230 Q834 1238 834 1253 Q834 1377 929 1482.5 Q1024 1588 1165 1614 Q1166 1604 1166.5 1591 Q1167 1578 1167 1552 Q1167 1421 1063.5 1317.5 Q960 1214 860 1214 L852 1214 Q849 1214 844.5 1215 Q840 1216 836 1216 Z M1505 403 Q1391 156 1300 60.5 Q1209 -35 1096 -35 Q1046 -35 964.5 -2 Q883 31 842 31 Q797 31 711 -2 Q625 -35 584 -35 Q520 -35 455.5 9 Q391 53 326 141 Q224 281 168.5 436.5 Q113 592 113 737 Q113 956 238 1093.5 Q363 1231 561 1231 Q629 1231 716 1197 Q803 1163 840 1163 Q874 1163 961.5 1198 Q1049 1233 1114 1233 Q1224 1233 1312 1193 Q1400 1153 1473 1069 Q1371 1004 1321.5 923.5 Q1272 843 1272 741 Q1272 628 1332 541 Q1392 454 1505 403 Z " />
<glyph glyph-name="Ograve" unicode="&#xd2;" horiz-adv-x="1251" d="M266 680 Q266 382 348.5 233 Q431 84 596 84 Q761 84 844.5 233.5 Q928 383 928 680 Q928 977 844.5 1127.5 Q761 1278 596 1278 Q432 1278 349 1128 Q266 978 266 680 Z M125 700 Q125 1033 249 1216 Q373 1399 596 1399 Q823 1399 945 1213 Q1067 1027 1067 680 Q1067 333 945 147 Q823 -39 596 -39 Q366 -39 245.5 150 Q125 339 125 700 Z M706 1509 L600 1509 L319 1857 L497 1857 L706 1509 Z " />
<glyph glyph-name="Uacute" unicode="&#xda;" horiz-adv-x="1479" d="M301 1360 L440 1360 L440 410 Q440 235 509.5 160.5 Q579 86 741 86 Q850 86 915 122 Q980 158 1018 238 Q1037 278 1046 333 Q1055 388 1055 487 L1055 573 L1055 1360 L1174 1360 L1174 483 Q1174 220 1066.5 90.5 Q959 -39 741 -39 Q521 -39 411 69.5 Q301 178 301 395 L301 1360 Z M602 1509 L811 1857 L989 1857 L708 1509 L602 1509 Z " />
<glyph glyph-name="Ucircumflex" unicode="&#xdb;" horiz-adv-x="1479" d="M301 1360 L440 1360 L440 410 Q440 235 509.5 160.5 Q579 86 741 86 Q850 86 915 122 Q980 158 1018 238 Q1037 278 1046 333 Q1055 388 1055 487 L1055 573 L1055 1360 L1174 1360 L1174 483 Q1174 220 1066.5 90.5 Q959 -39 741 -39 Q521 -39 411 69.5 Q301 178 301 395 L301 1360 Z M452 1509 L649 1857 L827 1857 L1024 1509 L917 1509 L739 1751 L559 1509 L452 1509 Z " />
<glyph glyph-name="Ugrave" unicode="&#xd9;" horiz-adv-x="1479" d="M301 1360 L440 1360 L440 410 Q440 235 509.5 160.5 Q579 86 741 86 Q850 86 915 122 Q980 158 1018 238 Q1037 278 1046 333 Q1055 388 1055 487 L1055 573 L1055 1360 L1174 1360 L1174 483 Q1174 220 1066.5 90.5 Q959 -39 741 -39 Q521 -39 411 69.5 Q301 178 301 395 L301 1360 Z M876 1509 L770 1509 L489 1857 L667 1857 L876 1509 Z " />
<glyph glyph-name="dotlessi" unicode="&#x131;" horiz-adv-x="569" d="M221 0 L221 979 L348 979 L348 0 L221 0 Z " />
<glyph glyph-name="circumflex" unicode="&#x2c6;" horiz-adv-x="1024" d="M225 1112 L422 1460 L600 1460 L797 1112 L690 1112 L512 1354 L332 1112 L225 1112 Z " />
<glyph glyph-name="tilde" unicode="&#x2dc;" horiz-adv-x="1024" d="M803 1378 Q779 1286 728 1237 Q677 1188 604 1188 Q587 1188 571.5 1190.5 Q556 1193 539 1198 L459 1225 Q447 1229 433.5 1231 Q420 1233 406 1233 Q371 1233 347.5 1217.5 Q324 1202 309 1169 L221 1169 Q243 1261 293.5 1308.5 Q344 1356 420 1356 Q434 1356 449.5 1353 Q465 1350 480 1345 L557 1319 Q570 1315 586 1313 Q602 1311 618 1311 Q655 1311 679 1327.5 Q703 1344 715 1378 L803 1378 Z " />
<glyph glyph-name="overscore" unicode="&#xaf;" horiz-adv-x="1024" d="M254 1206 L254 1331 L770 1331 L770 1206 L254 1206 Z " />
<glyph glyph-name="breve" unicode="&#x2d8;" horiz-adv-x="1024" d="M230 1421 L319 1421 Q326 1345 371.5 1310.5 Q417 1276 512 1276 Q607 1276 652.5 1310.5 Q698 1345 705 1421 L795 1421 Q784 1280 716 1214.5 Q648 1149 512 1149 Q376 1149 307.5 1215.5 Q239 1282 230 1421 Z " />
<glyph glyph-name="dotaccent" unicode="&#x2d9;" horiz-adv-x="1024" d="M428 1169 L428 1368 L596 1368 L596 1169 L428 1169 Z " />
<glyph glyph-name="ring" unicode="&#x2da;" horiz-adv-x="1024" d="M371 1339 Q371 1279 411.5 1237.5 Q452 1196 512 1196 Q572 1196 613.5 1237.5 Q655 1279 655 1339 Q655 1399 613.5 1441 Q572 1483 512 1483 Q451 1483 411 1441.5 Q371 1400 371 1339 Z M264 1339 Q264 1444 336 1515.5 Q408 1587 512 1587 Q616 1587 688 1515.5 Q760 1444 760 1339 Q760 1235 688 1163.5 Q616 1092 512 1092 Q408 1092 336 1163.5 Q264 1235 264 1339 Z " />
<glyph glyph-name="cedilla" unicode="&#xb8;" horiz-adv-x="1024" d="M299 -422 L299 -336 Q373 -353 435.5 -362 Q498 -371 545 -371 Q605 -371 635.5 -350.5 Q666 -330 666 -289 Q666 -237 633 -213.5 Q600 -190 526 -190 Q506 -190 495.5 -190.5 Q485 -191 475 -192 L475 0 L549 0 L549 -106 L571 -106 Q683 -106 740 -151 Q797 -196 797 -283 Q797 -372 734.5 -418.5 Q672 -465 551 -465 Q506 -465 446.5 -455 Q387 -445 299 -422 Z " />
<glyph glyph-name="hungarumlaut" unicode="&#x2dd;" horiz-adv-x="1024" d="M580 1112 L748 1460 L903 1460 L664 1112 L580 1112 Z M322 1112 L469 1460 L627 1460 L406 1112 L322 1112 Z " />
<glyph glyph-name="ogonek" unicode="&#x2db;" horiz-adv-x="1024" d="M571 0 Q501 -64 467.5 -118.5 Q434 -173 434 -223 Q434 -268 456 -286.5 Q478 -305 530 -305 L612 -305 L612 -434 L532 -434 Q419 -434 365 -394 Q311 -354 311 -270 Q311 -205 352 -145 Q393 -85 500 0 L571 0 Z " />
<glyph glyph-name="caron" unicode="&#x2c7;" horiz-adv-x="1024" d="M225 1460 L332 1460 L512 1217 L690 1460 L797 1460 L600 1112 L422 1112 L225 1460 Z " />
<glyph glyph-name="Lslash" unicode="&#x141;" horiz-adv-x="1208" d="M291 0 L291 643 L131 537 L68 629 L291 774 L291 1360 L428 1360 L428 864 L637 1012 L698 920 L428 737 L428 123 L1128 123 L1128 0 L291 0 Z " />
<glyph glyph-name="lslash" unicode="&#x142;" horiz-adv-x="569" d="M217 0 L217 670 L109 592 L55 672 L217 786 L217 1378 L350 1436 L350 879 L459 954 L514 874 L350 760 L350 0 L217 0 Z " />
<glyph glyph-name="Scaron" unicode="&#x160;" horiz-adv-x="1251" d="M154 281 L283 338 Q325 212 411 148 Q497 84 625 84 Q747 84 819 155.5 Q891 227 891 348 Q891 434 845.5 494 Q800 554 705 594 L479 688 Q337 748 271 835 Q205 922 205 1051 Q205 1211 306.5 1304 Q408 1397 584 1397 Q721 1397 821 1329.5 Q921 1262 993 1120 L872 1061 Q825 1170 746.5 1226 Q668 1282 563 1282 Q461 1282 396.5 1219 Q332 1156 332 1057 Q332 985 376 926 Q420 867 500 831 L731 729 Q895 658 960.5 573.5 Q1026 489 1026 354 Q1026 176 914.5 70.5 Q803 -35 612 -35 Q442 -35 326 45 Q210 125 154 281 Z M340 1857 L447 1857 L627 1614 L805 1857 L912 1857 L715 1509 L537 1509 L340 1857 Z " />
<glyph glyph-name="scaron" unicode="&#x161;" horiz-adv-x="797" d="M86 94 L141 205 Q216 147 280 119.5 Q344 92 401 92 Q490 92 548 142.5 Q606 193 606 268 Q606 319 578 352.5 Q550 386 483 414 L295 492 Q203 530 156 594.5 Q109 659 109 745 Q109 857 197.5 929 Q286 1001 426 1001 Q490 1001 554 982.5 Q618 964 690 924 L641 809 Q573 850 516 869.5 Q459 889 410 889 Q330 889 280.5 852 Q231 815 231 756 Q231 705 262.5 668 Q294 631 360 604 L506 547 Q625 500 678 436 Q731 372 731 276 Q731 145 640 60 Q549 -25 408 -25 Q316 -25 235 5 Q154 35 86 94 Z M112 1460 L219 1460 L399 1217 L577 1460 L684 1460 L487 1112 L309 1112 L112 1460 Z " />
<glyph glyph-name="Zcaron" unicode="&#x17d;" horiz-adv-x="1251" d="M154 0 L154 94 L909 1237 L186 1237 L186 1360 L1087 1360 L1087 1266 L334 123 L1094 123 L1094 0 L154 0 Z M340 1857 L447 1857 L627 1614 L805 1857 L912 1857 L715 1509 L537 1509 L340 1857 Z " />
<glyph glyph-name="zcaron" unicode="&#x17e;" horiz-adv-x="909" d="M113 0 L113 131 L649 854 L131 854 L131 973 L805 973 L805 848 L266 125 L805 125 L805 0 L113 0 Z M168 1460 L275 1460 L455 1217 L633 1460 L740 1460 L543 1112 L365 1112 L168 1460 Z " />
<glyph glyph-name="brokenbar" unicode="&#xa6;" horiz-adv-x="1024" d="M557 408 L557 -350 L467 -350 L467 408 L557 408 Z M557 1432 L557 674 L467 674 L467 1432 L557 1432 Z " />
<glyph glyph-name="Eth" unicode="&#xd0;" horiz-adv-x="1323" d="M201 0 L201 666 L0 666 L0 788 L201 788 L201 1360 L549 1360 Q841 1360 992 1187 Q1143 1014 1143 680 Q1143 346 992 173 Q841 0 549 0 L201 0 Z M338 123 L539 123 Q767 123 883 263.5 Q999 404 999 680 Q999 955 883 1096 Q767 1237 539 1237 L338 1237 L338 788 L594 788 L594 666 L338 666 L338 123 Z " />
<glyph glyph-name="eth" unicode="&#xf0;" horiz-adv-x="995" d="M647 911 L662 922 Q634 996 599.5 1058.5 Q565 1121 524 1169 L279 1073 L250 1157 L467 1241 Q428 1277 392.5 1305.5 Q357 1334 326 1356 L381 1442 Q428 1420 479 1381.5 Q530 1343 588 1286 L817 1376 L846 1294 L647 1214 Q758 1071 815 886.5 Q872 702 872 487 Q872 251 771 113 Q670 -25 498 -25 Q327 -25 226 112.5 Q125 250 125 483 Q125 710 221 846.5 Q317 983 473 983 Q521 983 563.5 965.5 Q606 948 647 911 Z M498 872 Q386 872 324 770 Q262 668 262 483 Q262 298 324 196 Q386 94 498 94 Q610 94 672.5 196.5 Q735 299 735 483 Q735 668 672.5 770 Q610 872 498 872 Z " />
<glyph glyph-name="Yacute" unicode="&#xdd;" horiz-adv-x="1366" d="M612 0 L612 487 L111 1360 L260 1360 L668 653 L692 653 L1100 1360 L1251 1360 L750 487 L750 0 L612 0 Z M547 1509 L756 1857 L934 1857 L653 1509 L547 1509 Z " />
<glyph glyph-name="yacute" unicode="&#xfd;" horiz-adv-x="909" d="M39 -305 L39 -143 L88 -143 Q114 -174 143.5 -189.5 Q173 -205 205 -205 Q259 -205 294 -167.5 Q329 -130 365 -33 L397 63 L55 979 L193 979 L453 256 L469 256 L733 979 L872 979 L471 -106 Q427 -221 360.5 -272.5 Q294 -324 188 -324 Q156 -324 117.5 -319 Q79 -314 39 -305 Z M318 1112 L527 1460 L705 1460 L424 1112 L318 1112 Z " />
<glyph glyph-name="Thorn" unicode="&#xde;" horiz-adv-x="1276" d="M401 1096 L651 1096 Q880 1096 1006.5 989.5 Q1133 883 1133 692 Q1133 501 1006.5 395 Q880 289 651 289 L401 289 L401 0 L264 0 L264 1360 L401 1360 L401 1096 Z M401 973 L401 416 L604 416 Q804 416 897.5 483.5 Q991 551 991 694 Q991 838 897.5 905.5 Q804 973 604 973 L401 973 Z " />
<glyph glyph-name="thorn" unicode="&#xfe;" horiz-adv-x="1024" d="M537 98 Q648 98 709 199 Q770 300 770 487 Q770 675 709 777 Q648 879 537 879 Q491 879 444 851 Q397 823 360 774 Q315 712 290.5 638 Q266 564 266 487 Q266 411 290.5 337 Q315 263 360 201 Q396 153 443.5 125.5 Q491 98 537 98 Z M133 1378 L266 1436 L266 791 L283 791 Q348 895 424 948 Q500 1001 582 1001 Q738 1001 823.5 867.5 Q909 734 909 487 Q909 244 823.5 112 Q738 -20 582 -20 Q500 -20 424 33 Q348 86 283 190 L266 190 L266 -356 L133 -356 L133 1378 Z " />
<glyph glyph-name="minus" unicode="&#x2212;" horiz-adv-x="1706" d="M1452 651 L1452 569 L254 569 L254 651 L1452 651 Z " />
<glyph glyph-name="multiply" unicode="&#xd7;" horiz-adv-x="1706" d="M854 668 L1341 1155 L1399 1098 L911 610 L1399 123 L1341 66 L854 553 L367 66 L309 123 L797 610 L309 1098 L367 1155 L854 668 Z " />
<glyph glyph-name="onesuperior" unicode="&#xb9;" horiz-adv-x="752" d="M166 504 L166 578 L352 578 L352 1188 L137 1188 L137 1262 L446 1262 L446 578 L627 578 L627 504 L166 504 Z " />
<glyph glyph-name="twosuperior" unicode="&#xb2;" horiz-adv-x="752" d="M113 504 Q125 591 157.5 655.5 Q190 720 244 766 Q280 798 351 849.5 Q422 901 446 920 Q490 953 514.5 993.5 Q539 1034 539 1073 Q539 1130 494.5 1168 Q450 1206 383 1206 Q315 1206 265.5 1171.5 Q216 1137 188 1071 L115 1114 Q158 1197 224.5 1238.5 Q291 1280 381 1280 Q494 1280 564.5 1222 Q635 1164 635 1073 Q635 1031 617.5 990.5 Q600 950 567 913 Q528 869 439 806 Q416 790 405 782 Q311 713 278.5 671 Q246 629 233 578 L643 578 L643 504 L113 504 Z " />
<glyph glyph-name="threesuperior" unicode="&#xb3;" horiz-adv-x="752" d="M66 483 L66 557 Q278 561 408.5 625 Q539 689 539 784 Q539 835 500.5 865 Q462 895 397 895 Q359 895 327 890 Q295 885 264 874 L240 938 Q371 983 431.5 1028 Q492 1073 492 1126 Q492 1167 464 1189.5 Q436 1212 387 1212 Q330 1212 273.5 1189 Q217 1166 160 1120 L109 1171 Q186 1228 252 1254 Q318 1280 383 1280 Q472 1280 528 1237.5 Q584 1195 584 1128 Q584 1081 545.5 1039 Q507 997 428 958 Q531 946 582 904 Q633 862 633 788 Q633 654 480.5 571.5 Q328 489 66 483 Z " />
<glyph glyph-name="onequarter" unicode="&#xbc;" horiz-adv-x="1776" d="M1516 272 L1516 662 L1212 291 L1212 272 L1516 272 Z M1516 0 L1516 205 L1135 205 L1135 307 L1456 707 L1599 707 L1599 272 L1700 272 L1700 205 L1599 205 L1599 0 L1516 0 Z M375 -33 L1290 1294 L1399 1294 L485 -33 L375 -33 Z M158 555 L158 625 L336 625 L336 1192 L131 1192 L131 1262 L428 1262 L428 625 L598 625 L598 555 L158 555 Z " />
<glyph glyph-name="onehalf" unicode="&#xbd;" horiz-adv-x="1776" d="M1167 0 Q1178 80 1209 140.5 Q1240 201 1292 246 Q1325 273 1392 320 Q1459 367 1485 387 Q1526 420 1549.5 457.5 Q1573 495 1573 530 Q1573 585 1531 620 Q1489 655 1425 655 Q1359 655 1312 623 Q1265 591 1239 528 L1169 569 Q1209 648 1272.5 686.5 Q1336 725 1423 725 Q1530 725 1596.5 671 Q1663 617 1663 530 Q1663 490 1647.5 452.5 Q1632 415 1602 383 Q1562 342 1476 281 Q1456 267 1446 260 Q1359 198 1326.5 158 Q1294 118 1282 70 L1673 70 L1673 0 L1167 0 Z M375 -33 L1290 1294 L1399 1294 L485 -33 L375 -33 Z M158 555 L158 625 L336 625 L336 1192 L131 1192 L131 1262 L428 1262 L428 625 L598 625 L598 555 L158 555 Z " />
<glyph glyph-name="threequarters" unicode="&#xbe;" horiz-adv-x="1778" d="M1516 272 L1516 662 L1212 291 L1212 272 L1516 272 Z M1516 0 L1516 205 L1135 205 L1135 307 L1456 707 L1599 707 L1599 272 L1700 272 L1700 205 L1599 205 L1599 0 L1516 0 Z M375 -33 L1290 1294 L1399 1294 L485 -33 L375 -33 Z M63 537 L64 606 Q263 609 388.5 669 Q514 729 514 817 Q514 864 477 893 Q440 922 379 922 Q349 922 317 916.5 Q285 911 252 901 L229 961 Q354 1002 411.5 1044 Q469 1086 469 1135 Q469 1173 443 1195 Q417 1217 371 1217 Q316 1217 261.5 1195.5 Q207 1174 152 1130 L104 1180 Q177 1231 241 1255.5 Q305 1280 367 1280 Q452 1280 504.5 1240 Q557 1200 557 1137 Q557 1094 520.5 1055 Q484 1016 410 979 Q508 966 556 926.5 Q604 887 604 819 Q604 696 458 618.5 Q312 541 63 537 Z " />
<glyph glyph-name="franc" unicode="&#x20a3;" horiz-adv-x="1982" d="M248 0 L248 1360 L1098 1360 L1098 1237 L385 1237 L385 803 L985 803 L985 680 L385 680 L385 0 L248 0 Z M1399 0 L1399 942 L1532 999 L1532 629 L1551 629 Q1666 800 1764 892 Q1862 984 1946 999 L1946 758 L1934 758 Q1816 758 1718 697 Q1620 636 1532 508 L1532 0 L1399 0 Z " />
<glyph glyph-name="Gbreve" unicode="&#x11e;" horiz-adv-x="1366" d="M1073 -39 L1042 166 L1024 166 Q961 60 878.5 10.5 Q796 -39 682 -39 Q434 -39 309 141.5 Q184 322 184 680 Q184 1033 307.5 1216 Q431 1399 670 1399 Q832 1399 938.5 1309.5 Q1045 1220 1075 1059 L956 1008 Q929 1144 858.5 1211 Q788 1278 672 1278 Q496 1278 411 1130.5 Q326 983 326 680 Q326 369 414 225.5 Q502 82 692 82 Q841 82 921 188 Q1001 294 1014 506 L659 506 L659 629 L1126 629 L1126 -39 L1073 -39 Z M402 1818 L491 1818 Q498 1742 543.5 1707.5 Q589 1673 684 1673 Q779 1673 824.5 1707.5 Q870 1742 877 1818 L967 1818 Q956 1677 888 1611.5 Q820 1546 684 1546 Q548 1546 479.5 1612.5 Q411 1679 402 1818 Z " />
<glyph glyph-name="gbreve" unicode="&#x11f;" horiz-adv-x="1024" d="M252 545 Q252 385 310 295 Q368 205 469 205 Q587 205 667.5 301.5 Q748 398 748 545 Q748 692 667.5 789.5 Q587 887 469 887 Q368 887 310 796 Q252 705 252 545 Z M244 -252 L244 -127 L293 -127 Q319 -160 366 -176.5 Q413 -193 481 -193 Q610 -193 679 -126.5 Q748 -60 748 63 L748 279 L731 279 Q682 189 609.5 139.5 Q537 90 457 90 Q305 90 210 215.5 Q115 341 115 545 Q115 748 210 873.5 Q305 999 457 999 Q537 999 609.5 950 Q682 901 731 811 L748 811 L748 979 L881 979 L881 86 Q881 -97 775.5 -204 Q670 -311 492 -311 Q426 -311 365 -296.5 Q304 -282 244 -252 Z M242 1421 L331 1421 Q338 1345 383.5 1310.5 Q429 1276 524 1276 Q619 1276 664.5 1310.5 Q710 1345 717 1421 L807 1421 Q796 1280 728 1214.5 Q660 1149 524 1149 Q388 1149 319.5 1215.5 Q251 1282 242 1421 Z " />
<glyph glyph-name="Idot" unicode="&#x130;" horiz-adv-x="797" d="M188 0 L188 80 L332 80 L332 1280 L188 1280 L188 1360 L616 1360 L616 1280 L473 1280 L473 80 L616 80 L616 0 L188 0 Z M315 1566 L315 1765 L483 1765 L483 1566 L315 1566 Z " />
<glyph glyph-name="Scedilla" unicode="&#x15e;" horiz-adv-x="1251" d="M154 281 L283 338 Q325 212 411 148 Q497 84 625 84 Q747 84 819 155.5 Q891 227 891 348 Q891 434 845.5 494 Q800 554 705 594 L479 688 Q337 748 271 835 Q205 922 205 1051 Q205 1211 306.5 1304 Q408 1397 584 1397 Q721 1397 821 1329.5 Q921 1262 993 1120 L872 1061 Q825 1170 746.5 1226 Q668 1282 563 1282 Q461 1282 396.5 1219 Q332 1156 332 1057 Q332 985 376 926 Q420 867 500 831 L731 729 Q895 658 960.5 573.5 Q1026 489 1026 354 Q1026 176 914.5 70.5 Q803 -35 612 -35 Q442 -35 326 45 Q210 125 154 281 Z M414 -422 L414 -336 Q488 -353 550.5 -362 Q613 -371 660 -371 Q720 -371 750.5 -350.5 Q781 -330 781 -289 Q781 -237 748 -213.5 Q715 -190 641 -190 Q621 -190 610.5 -190.5 Q600 -191 590 -192 L590 0 L664 0 L664 -106 L686 -106 Q798 -106 855 -151 Q912 -196 912 -283 Q912 -372 849.5 -418.5 Q787 -465 666 -465 Q621 -465 561.5 -455 Q502 -445 414 -422 Z " />
<glyph glyph-name="scedilla" unicode="&#x15f;" horiz-adv-x="797" d="M86 94 L141 205 Q216 147 280 119.5 Q344 92 401 92 Q490 92 548 142.5 Q606 193 606 268 Q606 319 578 352.5 Q550 386 483 414 L295 492 Q203 530 156 594.5 Q109 659 109 745 Q109 857 197.5 929 Q286 1001 426 1001 Q490 1001 554 982.5 Q618 964 690 924 L641 809 Q573 850 516 869.5 Q459 889 410 889 Q330 889 280.5 852 Q231 815 231 756 Q231 705 262.5 668 Q294 631 360 604 L506 547 Q625 500 678 436 Q731 372 731 276 Q731 145 640 60 Q549 -25 408 -25 Q316 -25 235 5 Q154 35 86 94 Z M186 -422 L186 -336 Q260 -353 322.5 -362 Q385 -371 432 -371 Q492 -371 522.5 -350.5 Q553 -330 553 -289 Q553 -237 520 -213.5 Q487 -190 413 -190 Q393 -190 382.5 -190.5 Q372 -191 362 -192 L362 0 L436 0 L436 -106 L458 -106 Q570 -106 627 -151 Q684 -196 684 -283 Q684 -372 621.5 -418.5 Q559 -465 438 -465 Q393 -465 333.5 -455 Q274 -445 186 -422 Z " />
<glyph glyph-name="Cacute" unicode="&#x106;" horiz-adv-x="1251" d="M1102 371 Q1090 185 971.5 73 Q853 -39 672 -39 Q436 -39 313 144.5 Q190 328 190 680 Q190 1027 312.5 1213 Q435 1399 662 1399 Q838 1399 950.5 1299 Q1063 1199 1079 1026 L948 967 Q936 1124 867.5 1201 Q799 1278 672 1278 Q500 1278 415 1129 Q330 980 330 680 Q330 383 415 232.5 Q500 82 668 82 Q806 82 887.5 168 Q969 254 971 403 L1102 371 Z M535 1509 L744 1857 L922 1857 L641 1509 L535 1509 Z " />
<glyph glyph-name="cacute" unicode="&#x107;" horiz-adv-x="909" d="M846 178 Q791 74 708.5 24.5 Q626 -25 508 -25 Q330 -25 230.5 110 Q131 245 131 487 Q131 722 232.5 861.5 Q334 1001 502 1001 Q603 1001 682.5 956 Q762 911 834 813 L705 750 Q666 815 615 849 Q564 883 502 883 Q394 883 331 777.5 Q268 672 268 487 Q268 295 334 194.5 Q400 94 526 94 Q588 94 635 128 Q682 162 723 236 L846 178 Z M328 1112 L537 1460 L715 1460 L434 1112 L328 1112 Z " />
<glyph glyph-name="Ccaron" unicode="&#x10c;" horiz-adv-x="1251" d="M1102 371 Q1090 185 971.5 73 Q853 -39 672 -39 Q436 -39 313 144.5 Q190 328 190 680 Q190 1027 312.5 1213 Q435 1399 662 1399 Q838 1399 950.5 1299 Q1063 1199 1079 1026 L948 967 Q936 1124 867.5 1201 Q799 1278 672 1278 Q500 1278 415 1129 Q330 980 330 680 Q330 383 415 232.5 Q500 82 668 82 Q806 82 887.5 168 Q969 254 971 403 L1102 371 Z M385 1857 L492 1857 L672 1614 L850 1857 L957 1857 L760 1509 L582 1509 L385 1857 Z " />
<glyph glyph-name="ccaron" unicode="&#x10d;" horiz-adv-x="909" d="M846 178 Q791 74 708.5 24.5 Q626 -25 508 -25 Q330 -25 230.5 110 Q131 245 131 487 Q131 722 232.5 861.5 Q334 1001 502 1001 Q603 1001 682.5 956 Q762 911 834 813 L705 750 Q666 815 615 849 Q564 883 502 883 Q394 883 331 777.5 Q268 672 268 487 Q268 295 334 194.5 Q400 94 526 94 Q588 94 635 128 Q682 162 723 236 L846 178 Z M178 1460 L285 1460 L465 1217 L643 1460 L750 1460 L553 1112 L375 1112 L178 1460 Z " />
<glyph glyph-name="dslash" unicode="&#x111;" horiz-adv-x="1024" d="M756 -25 L756 190 L737 190 Q671 86 595.5 33 Q520 -20 438 -20 Q282 -20 196.5 112.5 Q111 245 111 487 Q111 734 196.5 867.5 Q282 1001 438 1001 Q520 1001 595.5 948 Q671 895 737 791 L756 791 L756 1143 L512 1143 L512 1241 L756 1241 L756 1378 L887 1436 L887 1241 L1024 1241 L1024 1143 L887 1143 L887 47 L756 -25 Z M250 487 Q250 300 310.5 199 Q371 98 483 98 Q586 98 671 217 Q756 336 756 487 Q756 640 671 759.5 Q586 879 483 879 Q372 879 311 777 Q250 675 250 487 Z " />
<glyph glyph-name="sfthyphen" unicode="&#xad;" horiz-adv-x="682" d="M109 428 L109 547 L559 547 L559 428 L109 428 Z " />
<glyph glyph-name="periodcentered" unicode="&#x2219;" horiz-adv-x="569" d="M162 614 Q162 664 198 701.5 Q234 739 283 739 Q333 739 368 702.5 Q403 666 403 614 Q403 565 367 528.5 Q331 492 283 492 Q234 492 198 528.5 Q162 565 162 614 Z " />
</font>
</svg>
