<?xml version="1.0" encoding="UTF-8"?>
<!-- Generator: Adobe Illustrator 15.0.2, SVG Export Plug-In . SVG Version: 6.00 Build 0)  -->
<!DOCTYPE svg PUBLIC "-//W3C//DTD SVG 1.1//EN" "http://www.w3.org/Graphics/SVG/1.1/DTD/svg11.dtd">
<svg xmlns="http://www.w3.org/2000/svg" xmlns:xlink="http://www.w3.org/1999/xlink" version="1.1" id="Layer_1" x="0px" y="0px" width="512px" height="416px" viewBox="0 0 512 416" enable-background="new 0 0 512 416" xml:space="preserve">
<g>
	<path d="M480,0H320c-17.656,0-32,14.336-32,32c0,0-4.156,29.344-32,32H32C14.336,64,0,77.828,0,95.484V384   c0,17.656,14.336,32,32,32h448c17.656,0,32-14.344,32-32V128V95.484V32C512,14.336,497.656,0,480,0z M256.094,415.812l-99.898-128   h67.898V159.805c0-17.664,14.336-32,32-32c17.656,0,32,14.336,32,32v128.008H356L256.094,415.812z" fill="#000000"/>
</g>
</svg>
