<?xml version="1.0" encoding="utf-8"?>
<!-- Generator: Adobe Illustrator 16.0.4, SVG Export Plug-In . SVG Version: 6.00 Build 0)  -->
<!DOCTYPE svg PUBLIC "-//W3C//DTD SVG 1.1//EN" "http://www.w3.org/Graphics/SVG/1.1/DTD/svg11.dtd">
<svg version="1.1" id="Layer_1" xmlns="http://www.w3.org/2000/svg" xmlns:xlink="http://www.w3.org/1999/xlink" x="0px" y="0px"
	 width="512px" height="416px" viewBox="0 0 512 416" style="enable-background:new 0 0 512 416;" xml:space="preserve">
<style type="text/css">
<![CDATA[
	.st0{fill:#FFFFFF;}
]]>
</style>
<g>
	<path class="st0" d="M480,0H320c-17.7,0-32,14.3-32,32c0,0-4.2,29.3-32,32H32C14.3,64,0,77.8,0,95.5V384c0,17.7,14.3,32,32,32h448
		c17.7,0,32-14.3,32-32V128V95.5V32C512,14.3,497.7,0,480,0z M256.1,415.8l-99.9-128h67.9v-128c0-17.7,14.3-32,32-32
		c17.7,0,32,14.3,32,32v128H356L256.1,415.8z"/>
</g>
</svg>
