<?xml version="1.0" encoding="utf-8"?>
<!-- Generator: Adobe Illustrator 16.0.4, SVG Export Plug-In . SVG Version: 6.00 Build 0)  -->
<!DOCTYPE svg PUBLIC "-//W3C//DTD SVG 1.1//EN" "http://www.w3.org/Graphics/SVG/1.1/DTD/svg11.dtd">
<svg version="1.1" id="Layer_1" xmlns="http://www.w3.org/2000/svg" xmlns:xlink="http://www.w3.org/1999/xlink" x="0px" y="0px"
	 width="207.7px" height="32px" viewBox="0 0 207.7 32" style="enable-background:new 0 0 207.7 32;" xml:space="preserve">
<style type="text/css">
<![CDATA[
	.st0{fill:none;stroke:#FFFFFF;stroke-width:0.4333;stroke-miterlimit:10;}
	.st1{fill:#FFFFFF;}
	.st2{fill:none;stroke:#FFFFFF;stroke-width:0.433;stroke-miterlimit:10;}
	.st3{fill:none;stroke:#FFFFFF;stroke-width:0.4544;stroke-miterlimit:10;}
]]>
</style>
<g>
	<g id="XMLID_22_">
		<g>
			<path d="M40.6,2.1l-15.4,29l-4.5-8.4l-4.5,8.4L0.6,2.1h7.7l7.9,14.6l0.7-1.3L9.8,2.1h7.7l7.7,14.6l7.7-14.6H40.6z M25.2,28.8
				L38.7,3.1h-5l-8.5,16l-8.5-16h-5l6.5,12.5l-1.9,3.6l-8.8-16h-5l13.8,25.6l4.5-8.4L25.2,28.8z"/>
			<polygon class="st1" points="38.7,3.1 25.2,28.8 20.8,20.3 16.3,28.8 2.5,3.1 7.5,3.1 16.3,19.1 18.2,15.6 11.7,3.1 16.7,3.1 
				25.2,19.1 33.7,3.1 			"/>
		</g>
		<g>
			<polygon class="st3" points="38.7,3.1 33.7,3.1 25.2,19.1 16.7,3.1 11.7,3.1 18.2,15.6 16.3,19.1 7.5,3.1 2.5,3.1 16.3,28.8 
				20.8,20.3 25.2,28.8 			"/>
		</g>
	</g>
	<g id="XMLID_21_">
		<g>
			<path d="M53,1.7c7.8,0,14.1,6.3,14.1,14c0,7.7-6.3,14-14.1,14c-7.8,0-14.1-6.3-14.1-14C38.9,8,45.2,1.7,53,1.7z M66.1,15.8
				c0-7.2-5.9-13.1-13.1-13.1c-7.3,0-13.1,5.8-13.1,13.1c0,7.2,5.9,13,13.1,13C60.3,28.8,66.1,23,66.1,15.8z"/>
			<path class="st1" d="M53,2.7c7.3,0,13.1,5.8,13.1,13.1c0,7.2-5.9,13-13.1,13c-7.3,0-13.1-5.8-13.1-13C39.9,8.5,45.7,2.7,53,2.7z
				 M62.1,15.8c0-5.2-4.1-9.5-9.1-9.5c-5,0-9.1,4.3-9.1,9.5c0,5.2,4.1,9.4,9.1,9.4C58,25.2,62.1,20.9,62.1,15.8z"/>
			<path d="M53,6.3c5,0,9.1,4.3,9.1,9.5c0,5.2-4.1,9.4-9.1,9.4c-5,0-9.1-4.2-9.1-9.4C43.9,10.5,48,6.3,53,6.3z M61.1,15.8
				c0-4.7-3.7-8.5-8.1-8.5c-4.5,0-8.1,3.8-8.1,8.5c0,4.6,3.7,8.5,8.1,8.5C57.5,24.2,61.1,20.4,61.1,15.8z"/>
		</g>
		<g>
			<path class="st0" d="M53,28.8c7.3,0,13.1-5.8,13.1-13c0-7.2-5.9-13.1-13.1-13.1c-7.3,0-13.1,5.8-13.1,13.1
				C39.9,23,45.7,28.8,53,28.8z"/>
			<path class="st0" d="M53,6.3c5,0,9.1,4.3,9.1,9.5c0,5.2-4.1,9.4-9.1,9.4c-5,0-9.1-4.2-9.1-9.4C43.9,10.5,48,6.3,53,6.3z"/>
		</g>
	</g>
	<g>
		<g id="XMLID_20_">
			<g>
				<path d="M133.5,12.9c4.6,0,8.2,3.7,8.2,8.1c0,4.5-3.7,8.3-8.2,8.3h-10.9v-5.5h10.2c1.6,0,3-1.2,3-2.7c0-1.6-1.3-2.7-3-2.7h-3.6
					c-4.5,0-8.1-3.8-8.1-8.2s3.6-8,8.1-8h9.2v5.4h-8.7c-1.5,0-2.7,1.2-2.7,2.7c0,1.5,1.2,2.7,2.7,2.7H133.5z M140.7,21
					c0-3.9-3.2-7.1-7.2-7.1h-3.8c-2,0-3.7-1.7-3.7-3.7c0-2,1.7-3.7,3.7-3.7h7.7V3.1h-8.2c-4,0-7.1,3.2-7.1,7c0,3.8,3.1,7.2,7.1,7.2
					h3.6c2.2,0,4,1.6,4,3.7c0,2.1-1.8,3.7-4,3.7h-9.3v3.6h9.9C137.5,28.3,140.7,25,140.7,21z"/>
				<path class="st1" d="M133.5,13.9c4,0,7.2,3.2,7.2,7.1c0,4-3.3,7.3-7.2,7.3h-9.9v-3.6h9.3c2.2,0,4-1.5,4-3.7c0-2.2-1.8-3.7-4-3.7
					h-3.6c-4,0-7.1-3.4-7.1-7.2c0-3.9,3.1-7,7.1-7h8.2v3.4h-7.7c-2,0-3.7,1.7-3.7,3.7c0,2,1.7,3.7,3.7,3.7H133.5z"/>
				<path d="M117.9,15.7c0,7.5-5.7,13.6-13.4,13.6h-9.9V2.1h9.9C111.9,2.1,117.9,8.2,117.9,15.7z M104.5,28.3
					c7.1,0,12.4-5.6,12.4-12.6c0-6.9-5.5-12.6-12.4-12.6h-9v25.2H104.5z"/>
				<path class="st1" d="M116.9,15.7c0,7-5.3,12.6-12.4,12.6h-9V3.1h9C111.4,3.1,116.9,8.8,116.9,15.7z M104.1,25.1
					c5.2,0,9-4.2,9-9.4c0-5.1-3.8-9.4-9-9.4h-4.8v18.7H104.1z"/>
				<path d="M113,15.7c0,5.2-3.7,9.4-9,9.4h-4.8V6.4h4.8C109.2,6.4,113,10.6,113,15.7z M104.1,24.1c4.6,0,8-3.8,8-8.4
					c0-4.6-3.4-8.4-8-8.4h-3.8v16.8H104.1z"/>
				<path d="M89.9,27v2.3h-5.8V27c0-2.7-1.7-5.1-4.8-5.1h-3.5v7.4H70V2.1h9.3c6,0,10.6,4.1,10.6,9.9c0,3.4-1.6,5.8-3.7,7.3
					C89.1,21.4,89.9,24.1,89.9,27z M88.9,28.3V27c0-3-1.1-5.9-4.3-7.7c2-1,4.3-3.7,4.3-7.3c0-5.2-4.2-8.9-9.6-8.9H71v25.2h3.8v-7.4
					h4.5c3.7,0,5.8,3,5.8,6.1v1.3H88.9z"/>
				<path class="st1" d="M88.9,27v1.3h-3.8V27c0-3.1-2.1-6.1-5.8-6.1h-4.5v7.4H71V3.1h8.3c5.5,0,9.6,3.7,9.6,8.9
					c0,3.6-2.2,6.2-4.3,7.3C87.8,21.1,88.9,24,88.9,27z M85,12c0-2.9-2.3-5.7-5.3-5.7h-5v11.3h5C82.7,17.7,85,14.9,85,12z"/>
				<path d="M79.7,6.4c3,0,5.3,2.8,5.3,5.7c0,2.8-2.3,5.7-5.3,5.7h-5V6.4H79.7z M84,12c0-2.4-1.9-4.7-4.3-4.7h-4v9.4h4
					C82.2,16.7,84,14.4,84,12z"/>
			</g>
			<g>
				<path class="st0" d="M88.9,12c0-5.2-4.2-8.9-9.6-8.9H71v25.2h3.8v-7.4h4.5c3.7,0,5.8,3,5.8,6.1v1.3h3.8V27c0-3-1.1-5.9-4.3-7.7
					C86.7,18.3,88.9,15.6,88.9,12z"/>
				<path class="st2" d="M95.5,28.3h9c7.1,0,12.4-5.6,12.4-12.6c0-6.9-5.5-12.6-12.4-12.6h-9V28.3z"/>
				<path class="st0" d="M129.7,13.9c-2,0-3.7-1.7-3.7-3.7c0-2,1.7-3.7,3.7-3.7h7.7V3.1h-8.2c-4,0-7.1,3.2-7.1,7
					c0,3.8,3.1,7.2,7.1,7.2h3.6c2.2,0,4,1.6,4,3.7c0,2.1-1.8,3.7-4,3.7h-9.3v3.6h9.9c4,0,7.2-3.3,7.2-7.3c0-3.9-3.2-7.1-7.2-7.1
					H129.7z"/>
			</g>
		</g>
	</g>
	<g id="XMLID_19_">
		<g>
			<path d="M206.7,2.1v5.5h-11.2v4.7h10.7v5.4h-10.7v11.6h-5.7V2.1H206.7z M205.7,6.6V3.1h-14.9v25.2h3.7V16.8h10.7v-3.5h-10.7V6.6
				H205.7z"/>
			<polygon class="st1" points="205.7,3.1 205.7,6.6 194.5,6.6 194.5,13.3 205.2,13.3 205.2,16.8 194.5,16.8 194.5,28.3 190.8,28.3 
				190.8,3.1 			"/>
			<path d="M184.2,2.1v27.1h-5.7V2.1H184.2z M183.2,28.3V3.1h-3.7v25.2H183.2z"/>
			<rect x="179.5" y="3.1" class="st1" width="3.7" height="25.2"/>
			<path d="M167.8,1.1l5.6,28.2h-5.9L165.4,18l-6.6,12.4l-6.6-12.3l-2.1,11.2h-5.9l5.6-28.2l9,16.6L167.8,1.1z M172.2,28.3
				l-4.8-24.6l-8.6,16.1l-8.6-16.1l-4.8,24.6h3.9l2.5-13.1l7,13.1l7-13.1l2.5,13.1H172.2z"/>
			<polygon class="st1" points="167.4,3.8 172.2,28.3 168.4,28.3 165.8,15.2 158.9,28.3 151.9,15.2 149.3,28.3 145.5,28.3 
				150.3,3.8 158.9,19.9 			"/>
		</g>
		<g>
			<rect x="179.5" y="3.1" class="st0" width="3.7" height="25.2"/>
			<polygon class="st0" points="190.8,28.3 194.5,28.3 194.5,16.8 205.2,16.8 205.2,13.3 194.5,13.3 194.5,6.6 205.7,6.6 205.7,3.1 
				190.8,3.1 			"/>
		</g>
	</g>
</g>
</svg>
